<svg id="svg" version="1.1" width="400" height="400" xmlns="http://www.w3.org/2000/svg" xmlns:xlink="http://www.w3.org/1999/xlink" style="display: block;"><g id="svgg"><path id="path0" d="M187.800 1.600 C 187.660 1.827,185.670 2.000,183.200 2.000 C 180.730 2.000,178.740 2.173,178.600 2.400 C 178.464 2.620,176.934 2.800,175.200 2.800 C 173.466 2.800,171.936 2.980,171.800 3.200 C 171.664 3.420,170.573 3.600,169.376 3.600 C 168.179 3.600,167.200 3.780,167.200 4.000 C 167.200 4.220,166.221 4.400,165.024 4.400 C 163.827 4.400,162.736 4.580,162.600 4.800 C 162.464 5.020,161.564 5.200,160.600 5.200 C 159.636 5.200,158.736 5.380,158.600 5.600 C 158.464 5.820,157.654 6.000,156.800 6.000 C 155.946 6.000,155.136 6.180,155.000 6.400 C 154.864 6.620,154.144 6.800,153.400 6.800 C 152.656 6.800,151.936 6.980,151.800 7.200 C 151.664 7.420,150.944 7.600,150.200 7.600 C 149.456 7.600,148.736 7.780,148.600 8.000 C 148.464 8.220,147.836 8.400,147.205 8.400 C 146.574 8.400,145.787 8.670,145.457 9.000 C 145.127 9.330,144.394 9.600,143.829 9.600 C 143.263 9.600,142.800 9.780,142.800 10.000 C 142.800 10.220,142.260 10.400,141.600 10.400 C 140.940 10.400,140.400 10.580,140.400 10.800 C 140.400 11.020,139.680 11.200,138.800 11.200 C 137.920 11.200,137.200 11.380,137.200 11.600 C 137.200 11.820,136.660 12.000,136.000 12.000 C 135.340 12.000,134.800 12.180,134.800 12.400 C 134.800 12.620,134.260 12.800,133.600 12.800 C 132.940 12.800,132.400 12.980,132.400 13.200 C 132.400 13.420,131.950 13.600,131.400 13.600 C 130.850 13.600,130.400 13.780,130.400 14.000 C 130.400 14.220,129.961 14.400,129.424 14.400 C 128.887 14.400,128.336 14.580,128.200 14.800 C 128.064 15.020,127.603 15.200,127.176 15.200 C 126.749 15.200,126.400 15.380,126.400 15.600 C 126.400 15.820,125.860 16.000,125.200 16.000 C 124.540 16.000,124.000 16.180,124.000 16.400 C 124.000 16.620,123.640 16.800,123.200 16.800 C 122.760 16.800,122.400 16.980,122.400 17.200 C 122.400 17.420,122.040 17.600,121.600 17.600 C 121.160 17.600,120.800 17.780,120.800 18.000 C 120.800 18.220,120.260 18.400,119.600 18.400 C 118.940 18.400,118.400 18.580,118.400 18.800 C 118.400 19.020,118.040 19.200,117.600 19.200 C 117.160 19.200,116.800 19.380,116.800 19.600 C 116.800 19.820,116.440 20.000,116.000 20.000 C 115.560 20.000,115.200 20.180,115.200 20.400 C 115.200 20.620,114.840 20.800,114.400 20.800 C 113.960 20.800,113.600 20.980,113.600 21.200 C 113.600 21.420,113.240 21.600,112.800 21.600 C 112.360 21.600,112.000 21.780,112.000 22.000 C 112.000 22.220,111.640 22.400,111.200 22.400 C 110.760 22.400,110.400 22.580,110.400 22.800 C 110.400 23.020,110.155 23.200,109.856 23.200 C 109.199 23.200,104.255 25.676,104.067 26.100 C 103.993 26.265,103.678 26.400,103.367 26.400 C 103.055 26.400,102.800 26.580,102.800 26.800 C 102.800 27.020,102.440 27.200,102.000 27.200 C 101.560 27.200,101.200 27.380,101.200 27.600 C 101.200 27.820,100.964 28.000,100.675 28.000 C 100.387 28.000,99.764 28.360,99.292 28.800 C 98.820 29.240,98.156 29.600,97.817 29.600 C 97.478 29.600,97.200 29.780,97.200 30.000 C 97.200 30.220,96.964 30.400,96.675 30.400 C 96.387 30.400,95.802 30.717,95.375 31.104 C 94.949 31.491,93.745 32.256,92.700 32.803 C 91.655 33.351,90.800 34.024,90.800 34.299 C 90.800 34.575,90.480 34.800,90.088 34.800 C 89.697 34.800,89.117 35.160,88.800 35.600 C 88.483 36.040,87.985 36.400,87.694 36.400 C 87.402 36.400,86.722 36.841,86.183 37.381 C 85.644 37.920,84.572 38.661,83.801 39.026 C 83.031 39.392,82.400 39.851,82.400 40.046 C 82.400 40.241,82.168 40.400,81.884 40.400 C 81.600 40.400,80.572 41.120,79.600 42.000 C 78.628 42.880,77.672 43.600,77.476 43.600 C 77.281 43.600,76.617 44.140,76.000 44.800 C 75.383 45.460,74.702 46.000,74.486 46.000 C 74.270 46.000,72.888 47.170,71.415 48.600 C 69.942 50.030,68.593 51.200,68.417 51.200 C 67.926 51.200,60.000 59.085,60.000 59.572 C 60.000 59.808,59.811 60.000,59.579 60.000 C 59.049 60.000,50.800 68.321,50.800 68.856 C 50.800 69.074,49.900 70.129,48.800 71.200 C 47.700 72.271,46.800 73.354,46.800 73.605 C 46.800 73.857,46.080 74.754,45.200 75.600 C 44.320 76.446,43.600 77.331,43.600 77.569 C 43.600 77.806,43.420 78.000,43.200 78.000 C 42.980 78.000,42.800 78.198,42.800 78.440 C 42.800 78.681,42.260 79.383,41.600 80.000 C 40.940 80.617,40.400 81.343,40.400 81.614 C 40.400 81.884,40.084 82.397,39.697 82.753 C 39.311 83.109,38.727 83.940,38.400 84.600 C 38.073 85.260,37.489 86.091,37.103 86.447 C 36.716 86.803,36.400 87.348,36.400 87.659 C 36.400 87.969,36.040 88.483,35.600 88.800 C 35.160 89.117,34.800 89.697,34.800 90.088 C 34.800 90.480,34.552 90.800,34.249 90.800 C 33.945 90.800,33.473 91.340,33.200 92.000 C 32.927 92.660,32.567 93.200,32.400 93.200 C 32.233 93.200,31.873 93.740,31.600 94.400 C 31.327 95.060,30.980 95.600,30.830 95.600 C 30.680 95.600,30.117 96.497,29.579 97.594 C 29.040 98.690,28.465 99.590,28.300 99.594 C 28.135 99.597,28.000 99.960,28.000 100.400 C 28.000 100.840,27.848 101.200,27.663 101.200 C 27.477 101.200,26.892 102.055,26.363 103.100 C 25.833 104.145,25.265 105.060,25.100 105.133 C 24.935 105.207,24.800 105.612,24.800 106.033 C 24.800 106.455,24.620 106.800,24.400 106.800 C 24.180 106.800,24.000 107.160,24.000 107.600 C 24.000 108.040,23.820 108.400,23.600 108.400 C 23.380 108.400,23.200 108.850,23.200 109.400 C 23.200 109.950,23.020 110.400,22.800 110.400 C 22.580 110.400,22.400 110.760,22.400 111.200 C 22.400 111.640,22.265 112.001,22.100 112.003 C 21.741 112.007,20.800 113.944,20.800 114.680 C 20.800 114.966,20.620 115.200,20.400 115.200 C 20.180 115.200,20.000 115.560,20.000 116.000 C 20.000 116.440,19.820 116.800,19.600 116.800 C 19.380 116.800,19.200 117.160,19.200 117.600 C 19.200 118.040,19.020 118.400,18.800 118.400 C 18.580 118.400,18.400 118.749,18.400 119.176 C 18.400 119.603,18.220 120.064,18.000 120.200 C 17.780 120.336,17.600 120.887,17.600 121.424 C 17.600 121.961,17.420 122.400,17.200 122.400 C 16.980 122.400,16.800 122.760,16.800 123.200 C 16.800 123.640,16.620 124.000,16.400 124.000 C 16.180 124.000,16.000 124.439,16.000 124.976 C 16.000 125.513,15.820 126.064,15.600 126.200 C 15.380 126.336,15.200 126.797,15.200 127.224 C 15.200 127.651,15.020 128.000,14.800 128.000 C 14.580 128.000,14.400 128.439,14.400 128.976 C 14.400 129.513,14.220 130.064,14.000 130.200 C 13.780 130.336,13.600 130.887,13.600 131.424 C 13.600 131.961,13.420 132.400,13.200 132.400 C 12.980 132.400,12.800 132.940,12.800 133.600 C 12.800 134.260,12.620 134.800,12.400 134.800 C 12.180 134.800,12.000 135.340,12.000 136.000 C 12.000 136.660,11.820 137.200,11.600 137.200 C 11.380 137.200,11.200 137.740,11.200 138.400 C 11.200 139.060,11.020 139.600,10.800 139.600 C 10.580 139.600,10.400 140.140,10.400 140.800 C 10.400 141.460,10.220 142.000,10.000 142.000 C 9.780 142.000,9.600 142.720,9.600 143.600 C 9.600 144.756,9.433 145.200,9.000 145.200 C 8.603 145.200,8.400 145.597,8.400 146.376 C 8.400 147.023,8.220 147.664,8.000 147.800 C 7.780 147.936,7.600 148.656,7.600 149.400 C 7.600 150.144,7.420 150.864,7.200 151.000 C 6.980 151.136,6.800 151.831,6.800 152.544 C 6.800 153.257,6.638 154.011,6.441 154.220 C 6.244 154.429,5.969 155.410,5.831 156.400 C 5.214 160.837,5.097 161.422,4.759 161.780 C 4.562 161.989,4.400 163.114,4.400 164.280 C 4.400 165.446,4.220 166.400,4.000 166.400 C 3.778 166.400,3.600 167.467,3.600 168.800 C 3.600 170.133,3.422 171.200,3.200 171.200 C 2.969 171.200,2.800 172.459,2.800 174.176 C 2.800 175.813,2.620 177.264,2.400 177.400 C 2.171 177.542,2.000 179.604,2.000 182.224 C 2.000 185.008,1.843 186.800,1.600 186.800 C 1.052 186.800,1.052 211.462,1.600 211.800 C 1.832 211.943,2.000 214.130,2.000 217.000 C 2.000 219.870,2.168 222.057,2.400 222.200 C 2.620 222.336,2.800 223.686,2.800 225.200 C 2.800 226.714,2.980 228.064,3.200 228.200 C 3.420 228.336,3.600 229.607,3.600 231.024 C 3.600 232.475,3.775 233.600,4.000 233.600 C 4.220 233.600,4.400 234.579,4.400 235.776 C 4.400 236.973,4.580 238.064,4.800 238.200 C 5.020 238.336,5.200 239.326,5.200 240.400 C 5.200 241.474,5.380 242.464,5.600 242.600 C 5.820 242.736,6.000 243.456,6.000 244.200 C 6.000 244.944,6.180 245.664,6.400 245.800 C 6.620 245.936,6.800 246.746,6.800 247.600 C 6.800 248.454,6.980 249.264,7.200 249.400 C 7.420 249.536,7.600 250.267,7.600 251.024 C 7.600 251.781,7.780 252.400,8.000 252.400 C 8.220 252.400,8.400 252.927,8.400 253.571 C 8.400 254.216,8.670 255.013,9.000 255.343 C 9.330 255.673,9.600 256.406,9.600 256.971 C 9.600 257.537,9.780 258.000,10.000 258.000 C 10.220 258.000,10.400 258.720,10.400 259.600 C 10.400 260.480,10.580 261.200,10.800 261.200 C 11.020 261.200,11.200 261.740,11.200 262.400 C 11.200 263.060,11.380 263.600,11.600 263.600 C 11.820 263.600,12.000 264.039,12.000 264.576 C 12.000 265.113,12.180 265.664,12.400 265.800 C 12.620 265.936,12.800 266.487,12.800 267.024 C 12.800 267.561,12.980 268.000,13.200 268.000 C 13.420 268.000,13.600 268.540,13.600 269.200 C 13.600 269.860,13.780 270.400,14.000 270.400 C 14.220 270.400,14.400 270.940,14.400 271.600 C 14.400 272.260,14.580 272.800,14.800 272.800 C 15.020 272.800,15.200 273.160,15.200 273.600 C 15.200 274.040,15.380 274.400,15.600 274.400 C 15.820 274.400,16.000 274.940,16.000 275.600 C 16.000 276.260,16.180 276.800,16.400 276.800 C 16.620 276.800,16.800 277.160,16.800 277.600 C 16.800 278.040,16.980 278.400,17.200 278.400 C 17.420 278.400,17.600 278.839,17.600 279.376 C 17.600 279.913,17.780 280.464,18.000 280.600 C 18.220 280.736,18.400 281.197,18.400 281.624 C 18.400 282.051,18.580 282.400,18.800 282.400 C 19.020 282.400,19.200 282.760,19.200 283.200 C 19.200 283.640,19.380 284.000,19.600 284.000 C 19.820 284.000,20.000 284.360,20.000 284.800 C 20.000 285.240,20.180 285.600,20.400 285.600 C 20.620 285.600,20.800 285.960,20.800 286.400 C 20.800 286.840,20.980 287.200,21.200 287.200 C 21.420 287.200,21.600 287.650,21.600 288.200 C 21.600 288.750,21.735 289.201,21.900 289.203 C 22.259 289.207,23.200 291.144,23.200 291.880 C 23.200 292.166,23.380 292.400,23.600 292.400 C 23.820 292.400,24.000 292.760,24.000 293.200 C 24.000 293.640,24.180 294.000,24.400 294.000 C 24.620 294.000,24.800 294.345,24.800 294.767 C 24.800 295.188,24.935 295.593,25.100 295.667 C 25.476 295.834,26.775 297.964,27.071 298.900 C 27.193 299.285,27.452 299.600,27.647 299.600 C 27.841 299.600,28.000 299.960,28.000 300.400 C 28.000 300.840,28.159 301.200,28.353 301.200 C 28.548 301.200,28.807 301.515,28.929 301.900 C 29.259 302.942,30.504 304.909,31.300 305.646 C 31.685 306.002,32.000 306.588,32.000 306.947 C 32.000 307.306,32.158 307.600,32.351 307.600 C 32.545 307.600,32.927 308.140,33.200 308.800 C 33.473 309.460,33.945 310.000,34.249 310.000 C 34.552 310.000,34.800 310.360,34.800 310.800 C 34.800 311.240,34.980 311.600,35.200 311.600 C 35.420 311.600,35.600 311.870,35.600 312.200 C 35.600 312.530,35.780 312.800,36.000 312.800 C 36.220 312.800,36.400 313.070,36.400 313.400 C 36.400 313.730,36.580 314.000,36.800 314.000 C 37.020 314.000,37.200 314.270,37.200 314.600 C 37.200 314.930,37.350 315.200,37.532 315.200 C 37.715 315.200,38.119 315.695,38.430 316.300 C 38.740 316.905,39.311 317.691,39.697 318.047 C 40.084 318.403,40.400 318.916,40.400 319.186 C 40.400 319.457,40.940 320.183,41.600 320.800 C 42.260 321.417,42.800 322.097,42.800 322.312 C 42.800 322.527,43.520 323.445,44.400 324.352 C 45.280 325.259,46.000 326.192,46.000 326.426 C 46.000 326.660,46.860 327.695,47.911 328.726 C 48.962 329.757,50.257 331.230,50.789 332.000 C 52.011 333.769,68.283 350.000,68.835 350.000 C 69.060 350.000,70.304 351.080,71.600 352.400 C 72.896 353.720,74.145 354.800,74.377 354.800 C 74.609 354.800,75.541 355.520,76.448 356.400 C 77.355 357.280,78.273 358.000,78.488 358.000 C 78.703 358.000,79.383 358.540,80.000 359.200 C 80.617 359.860,81.369 360.400,81.672 360.400 C 81.975 360.400,82.483 360.760,82.800 361.200 C 83.117 361.640,83.562 362.003,83.788 362.006 C 84.015 362.010,84.809 362.550,85.554 363.206 C 86.299 363.863,87.056 364.400,87.236 364.400 C 87.416 364.400,88.014 364.850,88.564 365.400 C 89.114 365.950,89.842 366.400,90.182 366.400 C 90.522 366.400,90.800 366.550,90.800 366.732 C 90.800 366.915,91.295 367.320,91.900 367.632 C 92.505 367.945,93.349 368.515,93.775 368.900 C 94.202 369.285,94.704 369.600,94.892 369.600 C 95.080 369.600,95.620 369.960,96.092 370.400 C 96.564 370.840,97.187 371.200,97.475 371.200 C 97.764 371.200,98.000 371.380,98.000 371.600 C 98.000 371.820,98.360 372.000,98.800 372.000 C 99.240 372.000,99.600 372.180,99.600 372.400 C 99.600 372.620,99.960 372.800,100.400 372.800 C 100.840 372.800,101.200 372.952,101.200 373.137 C 101.200 373.323,102.055 373.908,103.100 374.437 C 104.145 374.967,105.060 375.535,105.133 375.700 C 105.207 375.865,105.486 376.000,105.754 376.000 C 106.463 376.000,108.393 376.949,108.397 377.300 C 108.399 377.465,108.850 377.600,109.400 377.600 C 109.950 377.600,110.400 377.780,110.400 378.000 C 110.400 378.220,110.760 378.400,111.200 378.400 C 111.640 378.400,112.000 378.580,112.000 378.800 C 112.000 379.020,112.360 379.200,112.800 379.200 C 113.240 379.200,113.600 379.380,113.600 379.600 C 113.600 379.820,113.960 380.000,114.400 380.000 C 114.840 380.000,115.200 380.180,115.200 380.400 C 115.200 380.620,115.560 380.800,116.000 380.800 C 116.440 380.800,116.800 380.980,116.800 381.200 C 116.800 381.420,117.160 381.600,117.600 381.600 C 118.040 381.600,118.400 381.780,118.400 382.000 C 118.400 382.220,118.749 382.400,119.176 382.400 C 119.603 382.400,120.064 382.580,120.200 382.800 C 120.336 383.020,120.887 383.200,121.424 383.200 C 121.961 383.200,122.400 383.380,122.400 383.600 C 122.400 383.820,122.760 384.000,123.200 384.000 C 123.640 384.000,124.000 384.180,124.000 384.400 C 124.000 384.620,124.540 384.800,125.200 384.800 C 125.860 384.800,126.400 384.980,126.400 385.200 C 126.400 385.420,126.760 385.600,127.200 385.600 C 127.640 385.600,128.000 385.780,128.000 386.000 C 128.000 386.220,128.540 386.400,129.200 386.400 C 129.860 386.400,130.400 386.580,130.400 386.800 C 130.400 387.020,130.738 387.200,131.151 387.200 C 131.564 387.200,132.126 387.470,132.400 387.800 C 132.674 388.130,133.162 388.400,133.484 388.400 C 134.146 388.400,141.428 390.699,142.495 391.245 C 142.877 391.440,143.631 391.600,144.171 391.600 C 144.711 391.600,145.264 391.780,145.400 392.000 C 145.536 392.220,146.267 392.400,147.024 392.400 C 147.781 392.400,148.400 392.580,148.400 392.800 C 148.400 393.020,149.019 393.200,149.776 393.200 C 150.533 393.200,151.264 393.380,151.400 393.600 C 151.536 393.820,152.346 394.000,153.200 394.000 C 154.054 394.000,154.864 394.180,155.000 394.400 C 155.136 394.620,155.957 394.800,156.824 394.800 C 157.691 394.800,158.400 394.980,158.400 395.200 C 158.400 395.420,159.300 395.600,160.400 395.600 C 161.500 395.600,162.400 395.780,162.400 396.000 C 162.400 396.220,163.300 396.400,164.400 396.400 C 165.500 396.400,166.400 396.580,166.400 396.800 C 166.400 397.022,167.459 397.200,168.776 397.200 C 170.083 397.200,171.264 397.380,171.400 397.600 C 171.536 397.820,173.167 398.000,175.024 398.000 C 177.008 398.000,178.400 398.165,178.400 398.400 C 178.400 398.643,180.200 398.800,183.000 398.800 C 185.800 398.800,187.600 398.957,187.600 399.200 C 187.600 399.458,191.992 399.600,199.976 399.600 C 207.796 399.600,212.444 399.453,212.600 399.200 C 212.742 398.969,214.871 398.800,217.624 398.800 C 220.541 398.800,222.400 398.644,222.400 398.400 C 222.400 398.167,223.725 398.000,225.576 398.000 C 227.323 398.000,228.864 397.820,229.000 397.600 C 229.136 397.380,230.227 397.200,231.424 397.200 C 232.621 397.200,233.600 397.020,233.600 396.800 C 233.600 396.578,234.667 396.400,236.000 396.400 C 237.333 396.400,238.400 396.222,238.400 396.000 C 238.400 395.780,239.300 395.600,240.400 395.600 C 241.500 395.600,242.400 395.420,242.400 395.200 C 242.400 394.980,243.109 394.800,243.976 394.800 C 244.843 394.800,245.664 394.620,245.800 394.400 C 245.936 394.180,246.757 394.000,247.624 394.000 C 248.491 394.000,249.200 393.820,249.200 393.600 C 249.200 393.380,249.920 393.200,250.800 393.200 C 251.680 393.200,252.400 393.040,252.400 392.844 C 252.400 392.648,253.030 392.378,253.800 392.244 C 254.570 392.110,255.830 391.890,256.600 391.756 C 257.370 391.622,258.000 391.352,258.000 391.156 C 258.000 390.960,258.540 390.800,259.200 390.800 C 259.860 390.800,260.400 390.620,260.400 390.400 C 260.400 390.180,260.808 390.000,261.306 390.000 C 261.804 390.000,263.196 389.640,264.400 389.200 C 265.604 388.760,266.884 388.400,267.245 388.400 C 267.607 388.400,268.126 388.130,268.400 387.800 C 268.674 387.470,269.236 387.200,269.649 387.200 C 270.062 387.200,270.400 387.020,270.400 386.800 C 270.400 386.580,270.940 386.400,271.600 386.400 C 272.260 386.400,272.800 386.220,272.800 386.000 C 272.800 385.780,273.160 385.600,273.600 385.600 C 274.040 385.600,274.400 385.420,274.400 385.200 C 274.400 384.980,274.940 384.800,275.600 384.800 C 276.260 384.800,276.800 384.620,276.800 384.400 C 276.800 384.180,277.160 384.000,277.600 384.000 C 278.040 384.000,278.400 383.820,278.400 383.600 C 278.400 383.380,278.760 383.200,279.200 383.200 C 279.640 383.200,280.000 383.020,280.000 382.800 C 280.000 382.580,280.540 382.400,281.200 382.400 C 281.860 382.400,282.400 382.220,282.400 382.000 C 282.400 381.780,282.760 381.600,283.200 381.600 C 283.640 381.600,284.000 381.420,284.000 381.200 C 284.000 380.980,284.360 380.800,284.800 380.800 C 285.240 380.800,285.600 380.620,285.600 380.400 C 285.600 380.180,285.960 380.000,286.400 380.000 C 286.840 380.000,287.200 379.820,287.200 379.600 C 287.200 379.380,287.650 379.200,288.200 379.200 C 288.750 379.200,289.200 379.020,289.200 378.800 C 289.200 378.580,289.560 378.400,290.000 378.400 C 290.440 378.400,290.800 378.220,290.800 378.000 C 290.800 377.780,291.160 377.600,291.600 377.600 C 292.040 377.600,292.400 377.420,292.400 377.200 C 292.400 376.980,292.760 376.800,293.200 376.800 C 293.640 376.800,294.000 376.620,294.000 376.400 C 294.000 376.180,294.345 376.000,294.767 376.000 C 295.188 376.000,295.593 375.865,295.667 375.700 C 295.834 375.324,297.964 374.025,298.900 373.729 C 299.285 373.607,299.600 373.348,299.600 373.153 C 299.600 372.959,299.960 372.800,300.400 372.800 C 300.840 372.800,301.200 372.620,301.200 372.400 C 301.200 372.180,301.520 372.000,301.912 372.000 C 302.303 372.000,302.883 371.640,303.200 371.200 C 303.517 370.760,304.057 370.400,304.400 370.400 C 304.743 370.400,305.283 370.040,305.600 369.600 C 305.917 369.160,306.497 368.800,306.888 368.800 C 307.280 368.800,307.600 368.620,307.600 368.400 C 307.600 368.180,307.836 368.000,308.125 368.000 C 308.413 368.000,309.036 367.640,309.508 367.200 C 309.980 366.760,310.466 366.400,310.588 366.400 C 311.083 366.400,315.686 363.042,315.878 362.541 C 315.992 362.243,316.387 362.000,316.754 362.000 C 317.122 362.000,317.683 361.640,318.000 361.200 C 318.317 360.760,318.769 360.400,319.004 360.400 C 319.240 360.400,320.228 359.680,321.200 358.800 C 322.172 357.920,323.128 357.200,323.324 357.200 C 323.519 357.200,324.183 356.660,324.800 356.000 C 325.417 355.340,326.095 354.800,326.307 354.800 C 326.519 354.800,328.001 353.540,329.600 352.000 C 331.199 350.460,332.653 349.200,332.831 349.200 C 333.203 349.200,339.438 343.323,342.755 339.847 C 343.990 338.552,346.125 336.326,347.500 334.900 C 348.875 333.474,350.000 332.138,350.000 331.931 C 350.000 331.725,351.080 330.496,352.400 329.200 C 353.720 327.904,354.800 326.655,354.800 326.423 C 354.800 326.191,355.520 325.259,356.400 324.352 C 357.280 323.445,358.000 322.527,358.000 322.312 C 358.000 322.097,358.540 321.417,359.200 320.800 C 359.860 320.183,360.400 319.431,360.400 319.128 C 360.400 318.825,360.760 318.317,361.200 318.000 C 361.640 317.683,362.000 317.202,362.000 316.932 C 362.000 316.661,362.237 316.296,362.527 316.120 C 362.818 315.944,363.662 314.900,364.404 313.800 C 365.146 312.700,365.899 311.740,366.077 311.667 C 366.255 311.593,366.400 311.188,366.400 310.767 C 366.400 310.345,366.550 310.000,366.732 310.000 C 366.915 310.000,367.320 309.505,367.632 308.900 C 367.945 308.295,368.515 307.451,368.900 307.025 C 369.285 306.598,369.600 306.013,369.600 305.725 C 369.600 305.436,369.758 305.200,369.951 305.200 C 370.145 305.200,370.527 304.660,370.800 304.000 C 371.073 303.340,371.455 302.800,371.649 302.800 C 371.842 302.800,372.000 302.440,372.000 302.000 C 372.000 301.560,372.180 301.200,372.400 301.200 C 372.620 301.200,372.800 300.922,372.800 300.583 C 372.800 300.244,373.160 299.580,373.600 299.108 C 374.040 298.636,374.400 298.013,374.400 297.725 C 374.400 297.436,374.580 297.200,374.800 297.200 C 375.020 297.200,375.200 296.840,375.200 296.400 C 375.200 295.960,375.380 295.600,375.600 295.600 C 375.820 295.600,376.000 295.240,376.000 294.800 C 376.000 294.360,376.180 294.000,376.400 294.000 C 376.620 294.000,376.800 293.640,376.800 293.200 C 376.800 292.760,376.980 292.400,377.200 292.400 C 377.420 292.400,377.600 292.040,377.600 291.600 C 377.600 291.160,377.780 290.800,378.000 290.800 C 378.220 290.800,378.400 290.440,378.400 290.000 C 378.400 289.560,378.580 289.200,378.800 289.200 C 379.020 289.200,379.200 288.750,379.200 288.200 C 379.200 287.650,379.380 287.200,379.600 287.200 C 379.820 287.200,380.000 286.840,380.000 286.400 C 380.000 285.960,380.180 285.600,380.400 285.600 C 380.620 285.600,380.800 285.240,380.800 284.800 C 380.800 284.360,380.980 284.000,381.200 284.000 C 381.420 284.000,381.600 283.640,381.600 283.200 C 381.600 282.760,381.780 282.400,382.000 282.400 C 382.220 282.400,382.400 282.040,382.400 281.600 C 382.400 281.160,382.580 280.800,382.800 280.800 C 383.020 280.800,383.200 280.451,383.200 280.024 C 383.200 279.597,383.380 279.136,383.600 279.000 C 383.820 278.864,384.000 278.313,384.000 277.776 C 384.000 277.239,384.180 276.800,384.400 276.800 C 384.620 276.800,384.800 276.451,384.800 276.024 C 384.800 275.597,384.980 275.136,385.200 275.000 C 385.420 274.864,385.600 274.313,385.600 273.776 C 385.600 273.239,385.780 272.800,386.000 272.800 C 386.220 272.800,386.400 272.260,386.400 271.600 C 386.400 270.940,386.580 270.400,386.800 270.400 C 387.020 270.400,387.200 270.062,387.200 269.649 C 387.200 269.236,387.470 268.674,387.800 268.400 C 388.130 268.126,388.400 267.485,388.400 266.975 C 388.400 266.465,388.580 265.936,388.800 265.800 C 389.020 265.664,389.200 265.124,389.200 264.600 C 389.200 264.076,389.380 263.536,389.600 263.400 C 389.820 263.264,390.000 262.713,390.000 262.176 C 390.000 261.639,390.180 261.200,390.400 261.200 C 390.620 261.200,390.800 260.671,390.800 260.024 C 390.800 259.377,390.980 258.736,391.200 258.600 C 391.420 258.464,391.600 257.733,391.600 256.976 C 391.600 256.219,391.780 255.600,392.000 255.600 C 392.220 255.600,392.400 255.071,392.400 254.424 C 392.400 253.777,392.580 253.136,392.800 253.000 C 393.020 252.864,393.200 252.133,393.200 251.376 C 393.200 250.619,393.380 250.000,393.600 250.000 C 393.820 250.000,394.000 249.291,394.000 248.424 C 394.000 247.557,394.180 246.736,394.400 246.600 C 394.620 246.464,394.800 245.553,394.800 244.576 C 394.800 243.599,394.980 242.800,395.200 242.800 C 395.420 242.800,395.600 241.911,395.600 240.824 C 395.600 239.737,395.780 238.736,396.000 238.600 C 396.220 238.464,396.400 237.463,396.400 236.376 C 396.400 235.289,396.580 234.400,396.800 234.400 C 397.022 234.400,397.200 233.341,397.200 232.024 C 397.200 230.717,397.380 229.536,397.600 229.400 C 397.820 229.264,398.000 227.813,398.000 226.176 C 398.000 224.459,398.169 223.200,398.400 223.200 C 398.643 223.200,398.800 221.400,398.800 218.600 C 398.800 215.800,398.957 214.000,399.200 214.000 C 399.458 214.000,399.600 209.675,399.600 201.824 C 399.600 194.137,399.452 189.556,399.200 189.400 C 398.968 189.257,398.800 187.070,398.800 184.200 C 398.800 181.330,398.632 179.143,398.400 179.000 C 398.180 178.864,398.000 177.413,398.000 175.776 C 398.000 174.059,397.831 172.800,397.600 172.800 C 397.371 172.800,397.200 171.600,397.200 170.000 C 397.200 168.400,397.029 167.200,396.800 167.200 C 396.580 167.200,396.400 166.311,396.400 165.224 C 396.400 164.137,396.220 163.136,396.000 163.000 C 395.780 162.864,395.600 161.874,395.600 160.800 C 395.600 159.726,395.420 158.736,395.200 158.600 C 394.980 158.464,394.800 157.654,394.800 156.800 C 394.800 155.946,394.620 155.136,394.400 155.000 C 394.180 154.864,394.000 154.043,394.000 153.176 C 394.000 152.309,393.820 151.600,393.600 151.600 C 393.380 151.600,393.200 150.880,393.200 150.000 C 393.200 149.120,393.040 148.400,392.844 148.400 C 392.507 148.400,392.390 147.951,391.768 144.300 C 391.627 143.475,391.352 142.800,391.156 142.800 C 390.960 142.800,390.800 142.271,390.800 141.624 C 390.800 140.977,390.620 140.336,390.400 140.200 C 390.180 140.064,390.000 139.513,390.000 138.976 C 390.000 138.439,389.820 138.000,389.600 138.000 C 389.380 138.000,389.200 137.460,389.200 136.800 C 389.200 136.140,389.020 135.600,388.800 135.600 C 388.580 135.600,388.400 135.054,388.400 134.387 C 388.400 133.679,388.151 133.079,387.800 132.945 C 387.458 132.813,387.200 132.217,387.200 131.557 C 387.200 130.921,387.020 130.400,386.800 130.400 C 386.580 130.400,386.400 130.051,386.400 129.624 C 386.400 129.197,386.220 128.736,386.000 128.600 C 385.780 128.464,385.600 127.913,385.600 127.376 C 385.600 126.839,385.420 126.400,385.200 126.400 C 384.980 126.400,384.800 125.961,384.800 125.424 C 384.800 124.887,384.620 124.336,384.400 124.200 C 384.180 124.064,384.000 123.603,384.000 123.176 C 384.000 122.749,383.820 122.400,383.600 122.400 C 383.380 122.400,383.200 122.040,383.200 121.600 C 383.200 121.160,383.020 120.800,382.800 120.800 C 382.580 120.800,382.400 120.361,382.400 119.824 C 382.400 119.287,382.220 118.736,382.000 118.600 C 381.780 118.464,381.600 118.003,381.600 117.576 C 381.600 117.149,381.420 116.800,381.200 116.800 C 380.980 116.800,380.800 116.440,380.800 116.000 C 380.800 115.560,380.620 115.200,380.400 115.200 C 380.180 115.200,380.000 114.840,380.000 114.400 C 380.000 113.960,379.820 113.600,379.600 113.600 C 379.380 113.600,379.200 113.240,379.200 112.800 C 379.200 112.360,379.020 112.000,378.800 112.000 C 378.580 112.000,378.400 111.640,378.400 111.200 C 378.400 110.760,378.220 110.400,378.000 110.400 C 377.780 110.400,377.600 110.135,377.600 109.812 C 377.600 109.489,377.240 108.583,376.800 107.800 C 376.360 107.017,376.000 106.111,376.000 105.788 C 376.000 105.465,375.820 105.200,375.600 105.200 C 375.380 105.200,375.200 104.930,375.200 104.600 C 375.200 104.270,375.020 104.000,374.800 104.000 C 374.580 104.000,374.400 103.730,374.400 103.400 C 374.400 103.070,374.220 102.800,374.000 102.800 C 373.780 102.800,373.600 102.440,373.600 102.000 C 373.600 101.560,373.420 101.200,373.200 101.200 C 372.980 101.200,372.800 100.840,372.800 100.400 C 372.800 99.960,372.620 99.600,372.400 99.600 C 372.180 99.600,372.000 99.364,372.000 99.075 C 372.000 98.787,371.640 98.164,371.200 97.692 C 370.760 97.220,370.400 96.556,370.400 96.217 C 370.400 95.878,370.250 95.600,370.068 95.600 C 369.885 95.600,369.480 95.105,369.168 94.500 C 368.855 93.895,368.285 93.051,367.900 92.625 C 367.515 92.198,367.200 91.613,367.200 91.325 C 367.200 91.036,367.020 90.800,366.800 90.800 C 366.580 90.800,366.400 90.575,366.400 90.300 C 366.399 90.025,365.949 89.277,365.400 88.638 C 364.850 87.999,364.400 87.351,364.400 87.199 C 364.400 86.715,362.924 85.200,362.453 85.200 C 362.204 85.200,362.000 84.874,362.000 84.475 C 362.000 84.077,361.640 83.364,361.200 82.892 C 360.760 82.420,360.400 81.884,360.400 81.701 C 360.400 81.518,359.680 80.572,358.800 79.600 C 357.920 78.628,357.200 77.676,357.200 77.485 C 357.200 77.294,356.480 76.446,355.600 75.600 C 354.720 74.754,354.000 73.896,354.000 73.692 C 354.000 73.489,352.920 72.187,351.600 70.800 C 350.280 69.413,349.200 68.123,349.200 67.935 C 349.200 67.439,334.464 52.742,332.810 51.587 C 332.045 51.054,330.364 49.578,329.075 48.308 C 327.785 47.039,326.548 46.000,326.326 46.000 C 326.103 46.000,325.417 45.460,324.800 44.800 C 324.183 44.140,323.481 43.600,323.240 43.600 C 322.998 43.600,322.800 43.420,322.800 43.200 C 322.800 42.980,322.602 42.800,322.360 42.800 C 322.119 42.800,321.417 42.260,320.800 41.600 C 320.183 40.940,319.457 40.400,319.186 40.400 C 318.916 40.400,318.403 40.084,318.047 39.697 C 317.691 39.311,316.905 38.740,316.300 38.430 C 315.695 38.119,315.200 37.715,315.200 37.532 C 315.200 37.350,314.930 37.200,314.600 37.200 C 314.270 37.200,314.000 37.020,314.000 36.800 C 314.000 36.580,313.730 36.400,313.400 36.400 C 313.070 36.400,312.800 36.220,312.800 36.000 C 312.800 35.780,312.530 35.600,312.200 35.600 C 311.870 35.600,311.600 35.420,311.600 35.200 C 311.600 34.980,311.240 34.800,310.800 34.800 C 310.360 34.800,310.000 34.552,310.000 34.249 C 310.000 33.945,309.460 33.473,308.800 33.200 C 308.140 32.927,307.600 32.545,307.600 32.351 C 307.600 32.158,307.280 32.000,306.888 32.000 C 306.497 32.000,305.917 31.640,305.600 31.200 C 305.283 30.760,304.703 30.400,304.312 30.400 C 303.920 30.400,303.600 30.220,303.600 30.000 C 303.600 29.780,303.322 29.600,302.983 29.600 C 302.644 29.600,301.980 29.240,301.508 28.800 C 301.036 28.360,300.413 28.000,300.125 28.000 C 299.836 28.000,299.600 27.820,299.600 27.600 C 299.600 27.380,299.322 27.200,298.983 27.200 C 298.644 27.200,297.980 26.840,297.508 26.400 C 297.036 25.960,296.413 25.600,296.125 25.600 C 295.836 25.600,295.600 25.420,295.600 25.200 C 295.600 24.980,295.240 24.800,294.800 24.800 C 294.360 24.800,294.000 24.620,294.000 24.400 C 294.000 24.180,293.640 24.000,293.200 24.000 C 292.760 24.000,292.400 23.820,292.400 23.600 C 292.400 23.380,292.040 23.200,291.600 23.200 C 291.160 23.200,290.800 23.020,290.800 22.800 C 290.800 22.580,290.440 22.400,290.000 22.400 C 289.560 22.400,289.200 22.220,289.200 22.000 C 289.200 21.780,288.750 21.600,288.200 21.600 C 287.650 21.600,287.200 21.420,287.200 21.200 C 287.200 20.980,286.840 20.800,286.400 20.800 C 285.960 20.800,285.600 20.620,285.600 20.400 C 285.600 20.180,285.240 20.000,284.800 20.000 C 284.360 20.000,284.000 19.820,284.000 19.600 C 284.000 19.380,283.640 19.200,283.200 19.200 C 282.760 19.200,282.400 19.020,282.400 18.800 C 282.400 18.580,281.961 18.400,281.424 18.400 C 280.887 18.400,280.336 18.220,280.200 18.000 C 280.064 17.780,279.603 17.600,279.176 17.600 C 278.749 17.600,278.400 17.420,278.400 17.200 C 278.400 16.980,278.040 16.800,277.600 16.800 C 277.160 16.800,276.800 16.620,276.800 16.400 C 276.800 16.180,276.260 16.000,275.600 16.000 C 274.940 16.000,274.400 15.820,274.400 15.600 C 274.400 15.380,274.040 15.200,273.600 15.200 C 273.160 15.200,272.800 15.020,272.800 14.800 C 272.800 14.580,272.260 14.400,271.600 14.400 C 270.940 14.400,270.400 14.220,270.400 14.000 C 270.400 13.780,270.051 13.600,269.624 13.600 C 269.197 13.600,268.736 13.420,268.600 13.200 C 268.464 12.980,267.924 12.800,267.400 12.800 C 266.876 12.800,266.336 12.620,266.200 12.400 C 266.064 12.180,265.423 12.000,264.776 12.000 C 264.129 12.000,263.600 11.820,263.600 11.600 C 263.600 11.380,263.060 11.200,262.400 11.200 C 261.740 11.200,261.200 11.020,261.200 10.800 C 261.200 10.580,260.581 10.400,259.824 10.400 C 259.067 10.400,258.336 10.220,258.200 10.000 C 258.064 9.780,257.501 9.600,256.948 9.600 C 256.395 9.600,255.673 9.330,255.343 9.000 C 255.013 8.670,254.226 8.400,253.595 8.400 C 252.964 8.400,252.348 8.240,252.227 8.044 C 252.020 7.708,251.007 7.472,247.497 6.942 C 246.671 6.818,245.895 6.555,245.774 6.358 C 245.652 6.161,244.944 6.000,244.200 6.000 C 243.456 6.000,242.736 5.820,242.600 5.600 C 242.464 5.380,241.463 5.200,240.376 5.200 C 239.289 5.200,238.400 5.020,238.400 4.800 C 238.400 4.580,237.536 4.400,236.480 4.400 C 235.424 4.400,234.389 4.236,234.180 4.035 C 233.775 3.647,231.060 3.301,225.700 2.954 C 223.885 2.837,222.400 2.574,222.400 2.371 C 222.400 2.165,220.357 2.000,217.800 2.000 C 215.000 2.000,213.200 1.843,213.200 1.600 C 213.200 1.342,208.741 1.200,200.624 1.200 C 192.671 1.200,187.956 1.347,187.800 1.600 M209.400 24.002 C 212.920 24.224,217.330 24.590,219.200 24.815 C 225.533 25.578,228.994 26.053,230.800 26.408 C 231.790 26.602,233.680 26.964,235.000 27.211 C 236.320 27.458,238.030 27.813,238.800 28.000 C 239.570 28.187,241.280 28.553,242.600 28.813 C 243.920 29.073,245.450 29.425,246.000 29.596 C 246.550 29.767,247.810 30.134,248.800 30.412 C 251.225 31.093,259.977 33.944,261.100 34.419 C 261.595 34.629,262.495 35.001,263.100 35.247 C 263.705 35.492,264.513 35.852,264.895 36.047 C 265.277 36.241,265.767 36.400,265.985 36.400 C 266.202 36.400,267.509 36.908,268.890 37.530 C 270.270 38.151,272.030 38.907,272.800 39.210 C 279.952 42.027,302.055 54.769,302.733 56.466 C 302.807 56.650,303.037 56.800,303.245 56.800 C 303.709 56.800,307.394 59.621,314.020 65.050 C 321.772 71.401,331.870 81.584,337.607 88.835 C 338.723 90.246,340.176 92.064,340.836 92.876 C 347.730 101.362,356.291 115.659,361.988 128.200 C 362.887 130.180,363.798 132.113,364.011 132.495 C 364.225 132.877,364.400 133.374,364.400 133.599 C 364.400 133.824,364.740 134.772,365.156 135.704 C 366.555 138.843,369.012 145.938,370.385 150.800 C 370.664 151.790,371.031 153.050,371.200 153.600 C 375.701 168.250,378.465 192.253,377.592 209.104 C 376.842 223.579,374.522 237.986,371.200 248.800 C 371.031 249.350,370.671 250.610,370.400 251.600 C 369.819 253.723,369.248 255.491,368.786 256.600 C 368.603 257.040,368.069 258.570,367.600 260.000 C 367.131 261.430,366.603 262.960,366.427 263.400 C 365.722 265.162,365.089 266.635,364.753 267.295 C 364.559 267.677,364.400 268.189,364.400 268.434 C 364.400 269.307,357.790 282.844,354.847 288.000 C 351.257 294.287,340.294 310.416,338.805 311.600 C 338.667 311.710,338.294 312.180,337.977 312.644 C 335.133 316.807,316.807 335.133,312.644 337.977 C 312.180 338.294,311.710 338.655,311.600 338.778 C 311.383 339.022,306.786 342.500,304.963 343.800 C 304.346 344.240,303.022 345.219,302.020 345.975 C 298.665 348.509,288.802 354.475,282.000 358.084 C 280.570 358.843,279.040 359.667,278.600 359.916 C 277.883 360.321,275.196 361.556,271.200 363.317 C 266.131 365.551,256.711 369.007,252.800 370.066 C 252.030 370.274,250.815 370.615,250.100 370.823 C 236.835 374.674,229.944 375.967,215.000 377.411 C 202.703 378.599,181.353 377.722,171.000 375.605 C 169.900 375.380,168.067 375.028,166.926 374.823 C 165.786 374.618,163.626 374.161,162.126 373.808 C 160.627 373.454,158.590 372.976,157.600 372.744 C 156.610 372.513,155.350 372.182,154.800 372.008 C 154.250 371.835,152.990 371.466,152.000 371.189 C 148.399 370.180,144.984 369.100,144.305 368.754 C 143.923 368.559,143.259 368.400,142.829 368.400 C 142.399 368.400,141.936 368.220,141.800 368.000 C 141.664 367.780,141.201 367.600,140.771 367.600 C 140.341 367.600,139.677 367.441,139.295 367.247 C 138.394 366.788,135.747 365.684,133.400 364.787 C 122.880 360.767,107.777 352.294,96.534 344.105 C 84.976 335.685,76.175 327.496,64.524 314.318 C 62.527 312.058,56.800 304.430,56.800 304.028 C 56.800 303.829,56.650 303.607,56.466 303.533 C 54.337 302.682,39.864 276.593,36.421 267.400 C 35.474 264.873,35.045 263.778,34.419 262.300 C 34.027 261.374,31.065 252.339,30.452 250.200 C 29.599 247.224,28.692 243.670,28.000 240.600 C 27.752 239.500,27.393 237.970,27.203 237.200 C 27.012 236.430,26.649 234.450,26.396 232.800 C 26.143 231.150,25.847 229.440,25.738 229.000 C 25.523 228.129,25.137 225.117,24.325 218.000 C 23.609 211.718,23.618 188.091,24.338 182.200 C 25.353 173.898,25.588 172.363,26.816 166.000 C 27.523 162.338,28.406 158.577,29.211 155.800 C 29.466 154.920,29.768 153.613,29.881 152.896 C 29.995 152.179,30.249 151.494,30.444 151.373 C 30.640 151.252,30.800 150.634,30.800 150.000 C 30.800 149.366,30.980 148.736,31.200 148.600 C 31.420 148.464,31.600 148.001,31.600 147.571 C 31.600 147.141,31.771 146.477,31.981 146.095 C 32.191 145.713,32.743 144.230,33.207 142.800 C 33.672 141.370,34.221 139.795,34.426 139.300 C 35.127 137.612,35.522 136.601,36.416 134.200 C 37.920 130.161,44.965 116.058,47.806 111.400 C 49.282 108.980,51.198 105.830,52.065 104.399 C 53.428 102.152,55.434 99.295,58.925 94.631 C 60.340 92.742,64.878 87.115,66.189 85.624 C 69.036 82.389,77.283 73.696,78.621 72.522 C 79.422 71.818,81.011 70.378,82.153 69.322 C 85.429 66.289,86.804 65.119,89.800 62.812 C 91.340 61.627,92.690 60.545,92.800 60.409 C 92.910 60.273,93.630 59.729,94.400 59.200 C 95.170 58.671,95.890 58.140,96.000 58.019 C 96.110 57.899,96.489 57.620,96.842 57.400 C 97.196 57.180,99.896 55.368,102.842 53.374 C 110.747 48.025,121.014 42.373,128.800 39.086 C 129.570 38.761,130.920 38.185,131.800 37.807 C 134.181 36.782,136.251 35.935,138.300 35.146 C 138.795 34.956,139.605 34.628,140.100 34.418 C 140.595 34.208,142.800 33.465,145.000 32.767 C 147.200 32.069,149.360 31.361,149.800 31.195 C 150.240 31.028,151.410 30.670,152.400 30.399 C 153.390 30.129,154.650 29.767,155.200 29.596 C 155.750 29.425,157.280 29.073,158.600 28.813 C 159.920 28.553,161.630 28.187,162.400 28.000 C 163.711 27.681,164.878 27.455,170.400 26.446 C 182.700 24.200,197.673 23.261,209.400 24.002 " stroke="none" fill="#000000" fill-rule="evenodd"></path><path id="path1" d="M189.400 24.214 C 180.684 24.853,176.318 25.365,170.400 26.446 C 164.878 27.455,163.711 27.681,162.400 28.000 C 161.630 28.187,159.920 28.553,158.600 28.813 C 157.280 29.073,155.750 29.425,155.200 29.596 C 154.650 29.767,153.390 30.129,152.400 30.399 C 151.410 30.670,150.240 31.028,149.800 31.195 C 149.360 31.361,147.200 32.069,145.000 32.767 C 142.800 33.465,140.595 34.208,140.100 34.418 C 139.605 34.628,138.795 34.956,138.300 35.146 C 136.251 35.935,134.181 36.782,131.800 37.807 C 130.920 38.185,129.570 38.761,128.800 39.086 C 121.014 42.373,110.747 48.025,102.842 53.374 C 99.896 55.368,97.196 57.180,96.842 57.400 C 96.489 57.620,96.110 57.899,96.000 58.019 C 95.890 58.140,95.170 58.671,94.400 59.200 C 93.630 59.729,92.910 60.273,92.800 60.409 C 92.690 60.545,91.340 61.627,89.800 62.812 C 86.804 65.119,85.429 66.289,82.153 69.322 C 81.011 70.378,79.422 71.818,78.621 72.522 C 77.283 73.696,69.036 82.389,66.189 85.624 C 64.878 87.115,60.340 92.742,58.925 94.631 C 55.434 99.295,53.428 102.152,52.065 104.399 C 51.198 105.830,49.282 108.980,47.806 111.400 C 44.965 116.058,37.920 130.161,36.416 134.200 C 35.522 136.601,35.127 137.612,34.426 139.300 C 34.221 139.795,33.672 141.370,33.207 142.800 C 32.743 144.230,32.191 145.713,31.981 146.095 C 31.771 146.477,31.600 147.141,31.600 147.571 C 31.600 148.001,31.420 148.464,31.200 148.600 C 30.980 148.736,30.800 149.366,30.800 150.000 C 30.800 150.634,30.640 151.252,30.444 151.373 C 30.249 151.494,29.995 152.179,29.881 152.896 C 29.768 153.613,29.466 154.920,29.211 155.800 C 28.406 158.577,27.523 162.338,26.816 166.000 C 25.588 172.363,25.353 173.898,24.338 182.200 C 23.618 188.091,23.609 211.718,24.325 218.000 C 25.137 225.117,25.523 228.129,25.738 229.000 C 25.847 229.440,26.143 231.150,26.396 232.800 C 26.649 234.450,27.012 236.430,27.203 237.200 C 27.393 237.970,27.752 239.500,28.000 240.600 C 28.692 243.670,29.599 247.224,30.452 250.200 C 31.065 252.339,34.027 261.374,34.419 262.300 C 35.045 263.778,35.474 264.873,36.421 267.400 C 39.864 276.593,54.337 302.682,56.466 303.533 C 56.650 303.607,56.800 303.829,56.800 304.028 C 56.800 304.430,62.527 312.058,64.524 314.318 C 76.175 327.496,84.976 335.685,96.534 344.105 C 107.777 352.294,122.880 360.767,133.400 364.787 C 135.747 365.684,138.394 366.788,139.295 367.247 C 139.677 367.441,140.341 367.600,140.771 367.600 C 141.201 367.600,141.664 367.780,141.800 368.000 C 141.936 368.220,142.399 368.400,142.829 368.400 C 143.259 368.400,143.923 368.559,144.305 368.754 C 144.984 369.100,148.399 370.180,152.000 371.189 C 152.990 371.466,154.250 371.835,154.800 372.008 C 155.350 372.182,156.610 372.513,157.600 372.744 C 158.590 372.976,160.627 373.454,162.126 373.808 C 163.626 374.161,165.786 374.618,166.926 374.823 C 168.067 375.028,169.900 375.380,171.000 375.605 C 181.353 377.722,202.703 378.599,215.000 377.411 C 228.086 376.147,232.619 375.401,242.400 372.903 C 246.089 371.961,247.388 371.610,250.100 370.823 C 250.815 370.615,252.030 370.274,252.800 370.066 C 256.711 369.007,266.131 365.551,271.200 363.317 C 275.196 361.556,277.883 360.321,278.600 359.916 C 279.040 359.667,280.570 358.843,282.000 358.084 C 288.802 354.475,298.665 348.509,302.020 345.975 C 303.022 345.219,304.346 344.240,304.963 343.800 C 306.786 342.500,311.383 339.022,311.600 338.778 C 311.710 338.655,312.180 338.294,312.644 337.977 C 316.807 335.133,335.133 316.807,337.977 312.644 C 338.294 312.180,338.667 311.710,338.805 311.600 C 340.294 310.416,351.257 294.287,354.847 288.000 C 357.790 282.844,364.400 269.307,364.400 268.434 C 364.400 268.189,364.559 267.677,364.753 267.295 C 365.089 266.635,365.722 265.162,366.427 263.400 C 366.603 262.960,367.131 261.430,367.600 260.000 C 368.069 258.570,368.603 257.040,368.786 256.600 C 369.248 255.491,369.819 253.723,370.400 251.600 C 370.671 250.610,371.031 249.350,371.200 248.800 C 374.522 237.986,376.842 223.579,377.592 209.104 C 378.465 192.253,375.701 168.250,371.200 153.600 C 371.031 153.050,370.664 151.790,370.385 150.800 C 369.012 145.938,366.555 138.843,365.156 135.704 C 364.740 134.772,364.400 133.824,364.400 133.599 C 364.400 133.374,364.225 132.877,364.011 132.495 C 363.798 132.113,362.887 130.180,361.988 128.200 C 356.291 115.659,347.730 101.362,340.836 92.876 C 340.176 92.064,338.723 90.246,337.607 88.835 C 331.870 81.584,321.772 71.401,314.020 65.050 C 307.394 59.621,303.709 56.800,303.245 56.800 C 303.037 56.800,302.807 56.650,302.733 56.466 C 302.055 54.769,279.952 42.027,272.800 39.210 C 272.030 38.907,270.270 38.151,268.890 37.530 C 267.509 36.908,266.202 36.400,265.985 36.400 C 265.767 36.400,265.277 36.241,264.895 36.047 C 264.513 35.852,263.705 35.492,263.100 35.247 C 262.495 35.001,261.595 34.629,261.100 34.419 C 259.977 33.944,251.225 31.093,248.800 30.412 C 247.810 30.134,246.550 29.767,246.000 29.596 C 245.450 29.425,243.920 29.073,242.600 28.813 C 241.280 28.553,239.570 28.187,238.800 28.000 C 238.030 27.813,236.320 27.458,235.000 27.211 C 233.680 26.964,231.790 26.602,230.800 26.408 C 218.971 24.083,202.855 23.229,189.400 24.214 M217.600 25.133 C 219.030 25.352,222.000 25.738,224.200 25.993 C 226.400 26.247,229.010 26.614,230.000 26.808 C 230.990 27.003,232.880 27.364,234.200 27.611 C 235.520 27.858,237.230 28.213,238.000 28.400 C 238.770 28.587,240.480 28.953,241.800 29.213 C 243.120 29.473,244.650 29.825,245.200 29.996 C 245.750 30.167,247.010 30.529,248.000 30.800 C 248.990 31.071,250.250 31.431,250.800 31.600 C 251.350 31.769,252.610 32.139,253.600 32.423 C 254.590 32.707,255.571 33.088,255.780 33.270 C 255.989 33.451,256.563 33.600,257.056 33.600 C 257.549 33.600,258.064 33.780,258.200 34.000 C 258.336 34.220,258.799 34.400,259.229 34.400 C 259.659 34.400,260.323 34.559,260.705 34.753 C 261.392 35.103,262.751 35.673,264.500 36.346 C 265.388 36.688,266.445 37.108,268.400 37.896 C 271.982 39.339,286.492 46.365,286.800 46.806 C 286.910 46.964,287.810 47.500,288.800 47.999 C 290.879 49.046,301.803 56.146,302.673 57.015 C 302.994 57.337,303.411 57.600,303.600 57.600 C 303.789 57.600,304.181 57.831,304.471 58.113 C 304.762 58.395,305.630 59.064,306.400 59.600 C 307.170 60.136,308.041 60.807,308.335 61.093 C 308.629 61.378,309.529 62.103,310.335 62.704 C 311.141 63.304,311.890 63.889,312.000 64.003 C 312.110 64.117,313.188 65.019,314.397 66.005 C 320.978 71.382,332.371 83.005,337.721 89.800 C 338.067 90.240,339.136 91.590,340.096 92.800 C 344.971 98.946,351.830 109.461,355.362 116.200 C 355.823 117.080,356.290 117.890,356.400 118.000 C 356.862 118.462,358.400 121.721,358.400 122.238 C 358.400 122.547,358.536 122.800,358.702 122.800 C 358.869 122.800,359.245 123.385,359.538 124.100 C 359.831 124.815,360.576 126.480,361.194 127.800 C 363.156 131.995,364.000 133.980,364.000 134.401 C 364.000 134.626,364.159 135.123,364.353 135.505 C 364.548 135.887,364.908 136.695,365.153 137.300 C 365.399 137.905,365.775 138.805,365.989 139.300 C 368.355 144.781,372.820 161.252,374.418 170.400 C 378.002 190.912,377.932 214.253,374.228 233.400 C 373.223 238.593,372.688 240.841,370.417 249.400 C 369.233 253.865,366.607 261.541,364.363 267.100 C 364.163 267.595,363.842 268.405,363.649 268.900 C 362.615 271.551,356.927 283.241,355.329 286.000 C 354.756 286.990,353.980 288.340,353.604 289.000 C 351.480 292.731,342.557 306.256,341.596 307.200 C 341.484 307.310,340.105 309.046,338.530 311.057 C 332.299 319.018,317.895 333.436,311.164 338.450 C 309.974 339.336,308.473 340.453,307.829 340.931 C 307.184 341.409,306.194 342.169,305.629 342.621 C 301.496 345.918,291.700 352.203,285.300 355.664 C 282.844 356.992,279.341 358.878,278.200 359.486 C 277.760 359.721,276.545 360.292,275.500 360.756 C 274.455 361.220,272.745 361.983,271.700 362.451 C 270.655 362.919,269.395 363.459,268.900 363.651 C 267.121 364.341,266.172 364.733,264.400 365.506 C 263.410 365.939,261.970 366.495,261.200 366.742 C 260.430 366.989,258.180 367.720,256.200 368.367 C 246.018 371.692,234.415 374.492,226.000 375.654 C 207.914 378.152,184.543 377.736,168.800 374.636 C 161.616 373.221,153.204 371.044,146.200 368.785 C 144.880 368.360,142.990 367.756,142.000 367.443 C 140.021 366.819,132.836 363.992,130.000 362.722 C 129.010 362.278,127.570 361.648,126.800 361.322 C 124.676 360.421,118.715 357.333,115.100 355.260 C 114.275 354.787,112.994 354.057,112.253 353.637 C 110.995 352.924,108.955 351.686,103.600 348.389 C 101.610 347.163,92.484 340.560,92.000 339.995 C 91.890 339.866,91.170 339.329,90.400 338.800 C 89.630 338.271,88.910 337.735,88.800 337.609 C 88.690 337.482,87.430 336.397,86.000 335.198 C 80.479 330.565,66.078 315.688,62.400 310.818 C 61.850 310.089,61.069 309.112,60.665 308.647 C 60.260 308.181,59.637 307.305,59.279 306.700 C 58.920 306.095,58.486 305.600,58.314 305.600 C 58.141 305.600,58.000 305.364,58.000 305.075 C 58.000 304.787,57.638 304.163,57.196 303.688 C 56.295 302.720,49.290 292.072,48.008 289.720 C 47.552 288.884,46.835 287.628,46.414 286.929 C 44.380 283.551,39.143 272.670,37.159 267.700 C 36.962 267.205,36.596 266.305,36.346 265.700 C 36.097 265.095,35.716 264.150,35.500 263.600 C 35.284 263.050,34.948 262.287,34.753 261.905 C 34.559 261.523,34.400 260.859,34.400 260.429 C 34.400 259.999,34.220 259.536,34.000 259.400 C 33.780 259.264,33.600 258.724,33.600 258.200 C 33.600 257.676,33.420 257.136,33.200 257.000 C 32.980 256.864,32.800 256.401,32.800 255.971 C 32.800 255.541,32.638 254.877,32.439 254.495 C 32.240 254.113,31.860 252.990,31.593 252.000 C 31.326 251.010,30.969 249.750,30.800 249.200 C 30.235 247.360,29.638 245.019,29.167 242.800 C 28.911 241.590,28.560 240.150,28.387 239.600 C 28.215 239.050,27.863 237.430,27.606 236.000 C 27.350 234.570,26.980 232.590,26.785 231.600 C 26.590 230.610,26.243 228.405,26.015 226.700 C 25.787 224.995,25.416 222.295,25.192 220.700 C 23.291 207.202,23.711 188.258,26.257 172.600 C 27.216 166.705,27.514 165.093,27.999 163.200 C 28.252 162.210,28.617 160.680,28.808 159.800 C 29.268 157.688,29.854 155.326,30.346 153.600 C 30.566 152.830,30.863 151.750,31.006 151.200 C 31.150 150.650,31.411 149.840,31.588 149.400 C 31.764 148.960,32.141 147.790,32.424 146.800 C 32.707 145.810,33.088 144.829,33.270 144.620 C 33.451 144.411,33.600 143.837,33.600 143.344 C 33.600 142.851,33.780 142.336,34.000 142.200 C 34.220 142.064,34.400 141.601,34.400 141.171 C 34.400 140.741,34.559 140.077,34.753 139.695 C 34.948 139.313,35.284 138.550,35.500 138.000 C 35.716 137.450,36.097 136.505,36.346 135.900 C 36.596 135.295,36.957 134.395,37.149 133.900 C 37.518 132.951,38.400 130.964,40.212 127.000 C 45.001 116.523,53.200 102.771,58.932 95.600 C 59.196 95.270,59.850 94.370,60.386 93.600 C 60.923 92.830,61.465 92.110,61.591 92.000 C 61.717 91.890,62.441 90.990,63.199 90.000 C 63.957 89.010,64.852 87.930,65.189 87.600 C 65.525 87.270,66.700 85.923,67.800 84.607 C 70.523 81.349,81.202 70.653,84.400 67.982 C 85.830 66.787,87.270 65.529,87.600 65.186 C 87.930 64.843,88.830 64.127,89.600 63.594 C 90.370 63.062,91.241 62.393,91.535 62.107 C 91.829 61.822,92.729 61.096,93.534 60.494 C 94.340 59.892,95.348 59.085,95.775 58.700 C 96.202 58.315,96.772 58.000,97.042 58.000 C 97.312 58.000,97.593 57.849,97.667 57.665 C 98.419 55.777,118.876 44.029,130.000 39.097 C 131.685 38.350,132.189 38.143,134.500 37.254 C 134.995 37.063,135.895 36.703,136.500 36.454 C 137.105 36.204,138.095 35.799,138.700 35.553 C 139.305 35.308,140.113 34.948,140.495 34.753 C 140.877 34.559,141.541 34.400,141.971 34.400 C 142.401 34.400,142.864 34.220,143.000 34.000 C 143.136 33.780,143.651 33.600,144.144 33.600 C 144.637 33.600,145.211 33.451,145.420 33.270 C 145.629 33.088,146.610 32.707,147.600 32.423 C 148.590 32.139,149.850 31.769,150.400 31.600 C 150.950 31.431,152.210 31.071,153.200 30.800 C 154.190 30.529,155.450 30.167,156.000 29.996 C 156.550 29.825,158.080 29.473,159.400 29.213 C 160.720 28.953,162.430 28.585,163.200 28.394 C 163.970 28.204,165.770 27.845,167.200 27.597 C 168.630 27.349,170.520 26.992,171.400 26.802 C 173.465 26.358,182.536 25.264,189.400 24.631 C 192.539 24.342,215.047 24.742,217.600 25.133 M362.738 192.200 C 362.882 193.080,363.000 197.518,363.000 202.062 C 363.000 206.607,363.132 210.117,363.294 209.862 C 363.854 208.981,363.613 193.108,363.020 191.800 L 362.475 190.600 362.738 192.200 M232.741 360.193 C 232.635 360.299,231.570 360.548,230.374 360.746 C 228.663 361.030,228.498 361.113,229.600 361.136 C 230.370 361.152,231.900 360.915,233.000 360.609 C 234.351 360.234,234.665 360.045,233.967 360.027 C 233.398 360.012,232.847 360.087,232.741 360.193 " stroke="none" fill="#555555" fill-rule="evenodd"></path><path id="path2" d="" stroke="none" fill="#ffffff" fill-rule="evenodd"></path><path id="path3" d="M107.067 125.867 C 106.920 126.013,106.800 133.663,106.800 142.867 L 106.800 159.600 124.400 159.600 L 142.000 159.600 142.000 198.396 L 142.000 237.192 124.500 237.296 L 107.000 237.400 107.000 254.600 L 107.000 271.800 188.887 271.901 C 278.487 272.011,272.011 271.839,269.528 274.047 C 269.127 274.403,268.800 274.853,268.799 275.047 C 268.799 275.241,268.259 276.030,267.600 276.800 C 266.941 277.570,266.401 278.385,266.401 278.612 C 266.400 278.838,266.040 279.283,265.600 279.600 C 265.160 279.917,264.800 280.407,264.800 280.688 C 264.800 280.970,264.620 281.200,264.400 281.200 C 264.180 281.200,264.000 281.425,263.999 281.700 C 263.999 281.975,263.459 282.830,262.800 283.600 C 262.141 284.370,261.601 285.185,261.601 285.412 C 261.600 285.638,261.240 286.083,260.800 286.400 C 260.360 286.717,260.000 287.297,260.000 287.688 C 260.000 288.080,259.775 288.401,259.500 288.403 C 259.225 288.404,258.550 289.077,258.000 289.897 C 257.073 291.279,253.619 296.085,252.895 297.000 C 252.721 297.220,252.142 298.030,251.608 298.800 C 251.075 299.570,250.528 300.290,250.393 300.400 C 250.258 300.510,249.540 301.500,248.797 302.600 C 248.054 303.700,247.301 304.660,247.123 304.733 C 246.945 304.807,246.800 305.122,246.800 305.433 C 246.800 305.745,246.620 306.000,246.400 306.000 C 246.180 306.000,246.000 306.270,246.000 306.600 C 246.000 306.930,245.850 307.200,245.668 307.200 C 245.485 307.200,245.081 307.695,244.770 308.300 C 244.460 308.905,243.933 309.670,243.600 310.000 C 243.267 310.330,242.740 311.095,242.430 311.700 C 242.119 312.305,241.715 312.800,241.532 312.800 C 241.350 312.800,241.200 313.160,241.200 313.600 C 241.200 314.040,241.020 314.400,240.800 314.400 C 240.580 314.400,240.400 315.019,240.400 315.776 C 240.400 316.533,240.220 317.264,240.000 317.400 C 239.780 317.536,239.600 318.166,239.600 318.800 C 239.600 319.434,239.420 320.064,239.200 320.200 C 238.980 320.336,238.800 321.067,238.800 321.824 C 238.800 322.581,238.620 323.200,238.400 323.200 C 238.180 323.200,238.000 323.830,238.000 324.600 C 238.000 325.370,237.820 326.000,237.600 326.000 C 237.380 326.000,237.200 326.619,237.200 327.376 C 237.200 328.133,237.020 328.864,236.800 329.000 C 236.580 329.136,236.400 329.856,236.400 330.600 C 236.400 331.344,236.220 332.064,236.000 332.200 C 235.780 332.336,235.600 332.977,235.600 333.624 C 235.600 334.271,235.420 334.800,235.200 334.800 C 234.980 334.800,234.800 335.443,234.800 336.229 C 234.800 337.014,234.530 337.927,234.200 338.257 C 233.870 338.587,233.600 339.297,233.600 339.834 C 233.600 340.371,233.429 341.123,233.220 341.505 C 232.788 342.295,231.606 346.748,231.309 348.704 C 231.201 349.421,230.951 350.106,230.756 350.227 C 230.560 350.348,230.400 350.966,230.400 351.600 C 230.400 352.234,230.220 352.864,230.000 353.000 C 229.780 353.136,229.600 353.766,229.600 354.400 C 229.600 355.034,229.440 355.652,229.244 355.773 C 229.049 355.894,228.791 356.579,228.673 357.296 C 228.554 358.013,228.333 359.095,228.182 359.700 C 227.930 360.708,228.002 360.800,229.054 360.800 C 231.885 360.800,239.522 358.496,239.933 357.518 C 240.007 357.343,240.322 357.200,240.633 357.200 C 240.945 357.200,241.200 357.020,241.200 356.800 C 241.200 356.580,241.436 356.400,241.725 356.400 C 242.013 356.400,242.598 356.085,243.025 355.700 C 243.451 355.315,244.295 354.745,244.900 354.432 C 245.505 354.120,246.000 353.715,246.000 353.532 C 246.000 353.350,246.320 353.200,246.712 353.200 C 247.103 353.200,247.683 352.840,248.000 352.400 C 248.317 351.960,248.897 351.600,249.288 351.600 C 249.680 351.600,250.000 351.450,250.000 351.268 C 250.000 351.085,250.495 350.680,251.100 350.368 C 251.705 350.055,252.549 349.485,252.975 349.100 C 253.402 348.715,253.987 348.400,254.275 348.400 C 254.564 348.400,254.800 348.250,254.800 348.068 C 254.800 347.885,255.295 347.480,255.900 347.168 C 256.505 346.855,257.349 346.285,257.775 345.900 C 258.202 345.515,258.787 345.200,259.075 345.200 C 259.364 345.200,259.600 345.042,259.600 344.849 C 259.600 344.655,260.140 344.273,260.800 344.000 C 261.460 343.727,262.000 343.357,262.000 343.178 C 262.000 343.000,262.359 342.740,262.798 342.601 C 263.236 342.462,263.821 342.134,264.098 341.874 C 264.374 341.613,265.950 340.518,267.600 339.439 C 269.250 338.361,270.660 337.326,270.733 337.139 C 270.807 336.953,271.040 336.800,271.252 336.800 C 271.771 336.800,273.600 334.942,273.600 334.415 C 273.600 334.183,274.140 333.428,274.800 332.737 C 275.460 332.046,276.000 331.278,276.000 331.029 C 276.000 330.780,276.360 330.317,276.800 330.000 C 277.240 329.683,277.600 329.238,277.601 329.012 C 277.601 328.785,278.141 327.970,278.800 327.200 C 279.459 326.430,279.999 325.615,279.999 325.388 C 280.000 325.162,280.360 324.717,280.800 324.400 C 281.240 324.083,281.600 323.593,281.600 323.312 C 281.600 323.030,281.780 322.800,282.000 322.800 C 282.220 322.800,282.400 322.530,282.400 322.200 C 282.400 321.870,282.550 321.600,282.732 321.600 C 282.915 321.600,283.319 321.105,283.630 320.500 C 283.940 319.895,284.511 319.109,284.897 318.753 C 285.284 318.397,285.600 317.902,285.600 317.653 C 285.600 317.404,285.780 317.200,286.000 317.200 C 286.220 317.200,286.400 316.945,286.400 316.633 C 286.400 316.322,286.552 316.007,286.737 315.933 C 287.140 315.774,290.800 310.987,290.800 310.619 C 290.800 310.479,291.250 309.914,291.800 309.364 C 292.350 308.814,292.800 308.200,292.800 308.000 C 292.800 307.800,293.250 307.186,293.800 306.636 C 294.350 306.086,294.800 305.493,294.801 305.318 C 294.801 305.143,295.341 304.370,296.000 303.600 C 296.659 302.830,297.199 302.063,297.199 301.896 C 297.200 301.729,297.740 301.028,298.400 300.337 C 299.060 299.646,299.600 298.878,299.600 298.629 C 299.600 298.380,299.960 297.917,300.400 297.600 C 300.840 297.283,301.200 296.838,301.201 296.612 C 301.201 296.385,301.741 295.570,302.400 294.800 C 303.059 294.030,303.599 293.267,303.599 293.105 C 303.600 292.841,304.215 292.004,305.400 290.655 C 305.620 290.405,306.055 289.705,306.368 289.100 C 306.680 288.495,307.085 288.000,307.268 288.000 C 307.450 288.000,307.600 287.757,307.600 287.459 C 307.600 287.162,308.140 286.354,308.800 285.663 C 309.460 284.972,310.000 284.208,310.000 283.964 C 310.000 283.720,310.495 283.044,311.100 282.460 C 311.706 281.877,312.735 280.590,313.389 279.600 C 314.042 278.610,315.083 277.170,315.702 276.400 C 317.043 274.733,317.142 274.600,318.400 272.800 C 318.938 272.030,319.698 271.051,320.089 270.625 C 320.480 270.198,320.800 269.705,320.800 269.529 C 320.800 269.223,321.631 268.111,322.700 266.984 C 322.975 266.694,323.200 266.309,323.201 266.129 C 323.201 265.948,323.741 265.170,324.400 264.400 C 325.059 263.630,325.599 262.815,325.599 262.588 C 325.600 262.362,325.960 261.917,326.400 261.600 C 326.840 261.283,327.200 260.791,327.200 260.508 C 327.200 260.225,327.740 259.428,328.400 258.737 C 329.060 258.046,329.600 257.326,329.600 257.137 C 329.600 256.948,330.140 256.228,330.800 255.537 C 331.460 254.846,332.000 254.078,332.000 253.829 C 332.000 253.580,332.360 253.117,332.800 252.800 C 333.240 252.483,333.600 251.991,333.600 251.708 C 333.600 251.425,334.140 250.628,334.800 249.937 C 335.460 249.246,336.000 248.504,336.000 248.288 C 336.000 248.071,336.330 247.603,336.733 247.247 C 337.136 246.891,338.171 245.598,339.033 244.373 C 340.908 241.709,343.007 238.866,343.814 237.895 C 344.136 237.508,344.400 237.058,344.401 236.895 C 344.401 236.733,344.941 235.970,345.600 235.200 C 346.259 234.430,346.799 233.615,346.799 233.388 C 346.800 233.162,347.160 232.717,347.600 232.400 C 348.040 232.083,348.400 231.620,348.400 231.371 C 348.400 231.122,348.940 230.354,349.600 229.663 C 350.260 228.972,350.800 228.224,350.800 228.000 C 350.800 227.776,351.340 227.028,352.000 226.337 C 352.660 225.646,353.200 224.878,353.200 224.629 C 353.200 224.380,353.560 223.917,354.000 223.600 C 354.440 223.283,354.800 222.793,354.800 222.512 C 354.800 222.230,354.980 222.000,355.200 222.000 C 355.420 222.000,355.600 221.730,355.600 221.400 C 355.600 221.070,355.750 220.800,355.932 220.800 C 356.115 220.800,356.519 220.305,356.830 219.700 C 357.140 219.095,357.711 218.309,358.097 217.953 C 358.484 217.597,358.800 217.102,358.800 216.853 C 358.800 216.604,358.980 216.400,359.200 216.400 C 359.420 216.400,359.600 216.130,359.600 215.800 C 359.600 215.470,359.780 215.200,360.000 215.200 C 360.220 215.200,360.400 215.012,360.400 214.783 C 360.400 214.554,360.722 214.021,361.115 213.599 C 363.224 211.335,364.225 194.424,362.440 191.231 C 361.745 189.988,360.160 188.400,359.615 188.400 C 359.383 188.400,358.628 187.860,357.937 187.200 C 357.246 186.540,356.522 186.000,356.326 186.000 C 356.131 186.000,355.573 185.637,355.086 185.194 C 354.052 184.252,351.380 182.145,349.767 181.000 C 349.148 180.560,347.865 179.615,346.917 178.900 C 345.969 178.185,345.015 177.600,344.797 177.600 C 344.578 177.600,344.400 177.459,344.400 177.286 C 344.400 175.283,340.892 175.510,339.602 177.596 C 339.057 178.478,338.474 179.200,338.306 179.200 C 338.138 179.200,338.000 179.470,338.000 179.800 C 338.000 180.130,337.820 180.400,337.600 180.400 C 337.380 180.400,337.200 180.578,337.200 180.795 C 337.200 181.167,336.440 182.215,335.300 183.416 C 335.025 183.706,334.800 184.226,334.800 184.571 C 334.800 184.917,334.575 185.201,334.300 185.203 C 334.025 185.204,333.486 185.757,333.101 186.433 C 332.401 187.664,331.200 187.384,331.200 185.989 C 331.200 183.131,322.064 179.541,318.895 181.153 C 318.513 181.348,317.733 181.723,317.162 181.988 C 315.725 182.654,312.800 185.388,312.800 186.065 C 312.800 186.372,312.440 186.883,312.000 187.200 C 311.560 187.517,311.200 188.057,311.200 188.400 C 311.200 188.743,310.840 189.283,310.400 189.600 C 309.960 189.917,309.600 190.398,309.600 190.668 C 309.600 190.938,309.195 191.597,308.700 192.133 C 307.713 193.202,302.784 202.693,302.794 203.505 C 302.797 203.783,302.592 204.413,302.338 204.905 C 301.315 206.884,301.200 207.236,301.200 208.395 C 301.200 209.058,301.020 209.600,300.800 209.600 C 300.580 209.600,300.400 210.140,300.400 210.800 C 300.400 211.460,300.220 212.000,300.000 212.000 C 299.780 212.000,299.600 212.709,299.600 213.576 C 299.600 214.443,299.420 215.264,299.200 215.400 C 298.980 215.536,298.800 216.447,298.800 217.424 C 298.800 218.401,298.640 219.200,298.444 219.200 C 298.107 219.200,297.990 219.649,297.368 223.300 C 297.227 224.125,296.952 224.800,296.756 224.800 C 296.560 224.800,296.400 225.340,296.400 226.000 C 296.400 226.660,296.220 227.200,296.000 227.200 C 295.780 227.200,295.600 227.639,295.600 228.176 C 295.600 228.713,295.420 229.264,295.200 229.400 C 294.980 229.536,294.800 230.087,294.800 230.624 C 294.800 231.161,294.620 231.600,294.400 231.600 C 294.180 231.600,294.000 231.960,294.000 232.400 C 294.000 232.840,293.820 233.200,293.600 233.200 C 293.380 233.200,293.200 233.560,293.200 234.000 C 293.200 234.440,293.020 234.800,292.800 234.800 C 292.580 234.800,292.400 235.160,292.400 235.600 C 292.400 236.040,292.220 236.400,292.000 236.400 C 291.780 236.400,291.600 236.760,291.600 237.200 C 291.600 237.640,291.420 238.000,291.200 238.000 C 290.980 238.000,290.800 238.360,290.800 238.800 C 290.800 240.030,290.096 239.748,289.800 238.400 L 289.536 237.200 271.768 237.200 L 254.000 237.200 254.000 198.400 L 254.000 159.600 271.753 159.600 L 289.507 159.600 289.748 158.700 C 290.064 157.520,290.073 127.055,289.757 126.233 C 289.504 125.572,107.725 125.208,107.067 125.867 M130.400 142.200 L 130.400 149.200 125.600 149.200 L 120.800 149.200 120.800 142.200 L 120.800 135.200 125.600 135.200 L 130.400 135.200 130.400 142.200 M154.800 142.200 L 154.800 149.200 149.600 149.200 L 144.400 149.200 144.400 142.200 L 144.400 135.200 149.600 135.200 L 154.800 135.200 154.800 142.200 M179.200 142.200 L 179.200 149.200 174.000 149.200 L 168.800 149.200 168.800 142.200 L 168.800 135.200 174.000 135.200 L 179.200 135.200 179.200 142.200 M203.600 142.200 L 203.600 149.200 198.400 149.200 L 193.200 149.200 193.200 142.200 L 193.200 135.200 198.400 135.200 L 203.600 135.200 203.600 142.200 M227.200 142.200 L 227.200 149.200 222.000 149.200 L 216.800 149.200 216.800 142.200 L 216.800 135.200 222.000 135.200 L 227.200 135.200 227.200 142.200 M251.600 142.200 L 251.600 149.200 246.400 149.200 L 241.200 149.200 241.200 142.200 L 241.200 135.200 246.400 135.200 L 251.600 135.200 251.600 142.200 M276.000 142.200 L 276.000 149.200 270.800 149.200 L 265.600 149.200 265.600 142.200 L 265.600 135.200 270.800 135.200 L 276.000 135.200 276.000 142.200 M238.000 198.400 L 238.000 237.200 198.400 237.200 L 158.800 237.200 158.800 198.400 L 158.800 159.600 198.400 159.600 L 238.000 159.600 238.000 198.400 M183.452 170.500 C 183.136 171.680,183.127 225.344,183.443 226.167 C 183.576 226.515,183.972 226.800,184.322 226.800 C 185.013 226.800,212.800 199.081,212.800 198.392 C 212.800 198.161,209.785 194.941,206.100 191.235 C 202.415 187.529,197.316 182.360,194.768 179.749 C 185.516 170.262,183.875 168.921,183.452 170.500 M317.600 202.400 C 317.600 202.620,318.320 202.800,319.200 202.800 C 320.981 202.800,321.252 203.360,320.083 204.625 C 319.689 205.051,318.755 206.300,318.007 207.400 C 317.259 208.500,316.501 209.460,316.323 209.533 C 316.145 209.607,316.000 209.939,316.000 210.273 C 316.000 210.606,315.460 211.383,314.800 212.000 C 314.140 212.617,313.600 213.320,313.600 213.564 C 313.600 213.808,313.060 214.572,312.400 215.263 C 311.740 215.954,311.200 216.722,311.200 216.971 C 311.200 217.220,310.840 217.683,310.400 218.000 C 309.960 218.317,309.600 218.740,309.600 218.940 C 309.600 219.140,308.961 220.045,308.180 220.952 C 306.415 223.000,306.363 223.069,304.999 225.129 C 303.241 227.787,303.151 226.838,304.847 223.505 C 305.041 223.123,305.200 222.538,305.200 222.205 C 305.200 221.872,305.380 221.600,305.600 221.600 C 305.820 221.600,306.000 221.240,306.000 220.800 C 306.000 220.360,306.180 220.000,306.400 220.000 C 306.620 220.000,306.800 219.640,306.800 219.200 C 306.800 218.760,306.980 218.400,307.200 218.400 C 307.420 218.400,307.600 218.040,307.600 217.600 C 307.600 217.160,307.780 216.800,308.000 216.800 C 308.220 216.800,308.400 216.535,308.400 216.212 C 308.400 215.889,308.760 214.983,309.200 214.200 C 309.640 213.417,310.000 212.511,310.000 212.188 C 310.000 211.865,310.150 211.600,310.332 211.600 C 310.515 211.600,310.920 211.105,311.232 210.500 C 311.545 209.895,311.940 209.220,312.112 209.000 C 312.835 208.073,315.651 203.344,315.863 202.700 C 316.104 201.966,317.600 201.708,317.600 202.400 M130.400 254.200 L 130.400 260.800 125.600 260.800 L 120.800 260.800 120.800 254.200 L 120.800 247.600 125.600 247.600 L 130.400 247.600 130.400 254.200 M154.800 254.200 L 154.800 260.800 149.600 260.800 L 144.400 260.800 144.400 254.200 L 144.400 247.600 149.600 247.600 L 154.800 247.600 154.800 254.200 M179.200 254.200 L 179.200 260.800 174.000 260.800 L 168.800 260.800 168.800 254.200 L 168.800 247.600 174.000 247.600 L 179.200 247.600 179.200 254.200 M203.600 254.200 L 203.600 260.800 198.400 260.800 L 193.200 260.800 193.200 254.200 L 193.200 247.600 198.400 247.600 L 203.600 247.600 203.600 254.200 M227.200 254.200 L 227.200 260.800 222.000 260.800 L 216.800 260.800 216.800 254.200 L 216.800 247.600 222.000 247.600 L 227.200 247.600 227.200 254.200 M251.600 254.200 L 251.600 260.800 246.400 260.800 L 241.200 260.800 241.200 254.200 L 241.200 247.600 246.400 247.600 L 251.600 247.600 251.600 254.200 M276.000 254.200 L 276.000 260.800 270.800 260.800 L 265.600 260.800 265.600 254.200 L 265.600 247.600 270.800 247.600 L 276.000 247.600 276.000 254.200 M252.127 320.774 C 252.546 321.118,253.126 321.625,253.416 321.900 C 253.706 322.175,254.136 322.400,254.371 322.400 C 254.607 322.400,254.801 322.535,254.802 322.700 C 254.803 322.865,255.792 323.630,257.000 324.400 C 258.208 325.170,259.197 325.935,259.198 326.100 C 259.199 326.265,259.443 326.400,259.741 326.400 C 260.038 326.400,260.829 326.923,261.498 327.562 C 262.167 328.202,263.037 328.787,263.432 328.863 C 263.913 328.956,262.838 329.854,260.175 331.584 C 257.989 333.004,256.140 334.309,256.067 334.483 C 255.993 334.658,255.678 334.800,255.367 334.800 C 255.055 334.800,254.800 334.980,254.800 335.200 C 254.800 335.420,254.530 335.600,254.200 335.600 C 253.870 335.600,253.600 335.780,253.600 336.000 C 253.600 336.220,253.330 336.400,253.000 336.400 C 252.670 336.400,252.400 336.580,252.400 336.800 C 252.400 337.020,252.164 337.200,251.875 337.200 C 251.587 337.200,251.002 337.515,250.575 337.900 C 250.149 338.285,249.305 338.855,248.700 339.168 C 248.095 339.480,247.600 339.885,247.600 340.068 C 247.600 340.250,247.280 340.400,246.888 340.400 C 246.497 340.400,245.917 340.760,245.600 341.200 C 245.283 341.640,244.883 342.000,244.712 342.000 C 244.253 342.000,244.332 339.689,244.800 339.400 C 245.020 339.264,245.200 338.634,245.200 338.000 C 245.200 337.366,245.380 336.736,245.600 336.600 C 245.820 336.464,246.000 335.733,246.000 334.976 C 246.000 334.219,246.160 333.600,246.356 333.600 C 246.693 333.600,246.810 333.151,247.432 329.500 C 247.573 328.675,247.848 328.000,248.044 328.000 C 248.240 328.000,248.400 327.381,248.400 326.624 C 248.400 325.867,248.580 325.136,248.800 325.000 C 249.020 324.864,249.200 324.234,249.200 323.600 C 249.200 322.966,249.380 322.336,249.600 322.200 C 249.820 322.064,250.000 321.429,250.000 320.789 C 250.000 319.524,250.598 319.520,252.127 320.774 " stroke="none" fill="#9c1010" fill-rule="evenodd"></path><path id="path4" d="" stroke="none" fill="#ff0000" fill-rule="evenodd"></path><path id="path5" d="M189.400 24.631 C 182.536 25.264,173.465 26.358,171.400 26.802 C 170.520 26.992,168.630 27.349,167.200 27.597 C 165.770 27.845,163.970 28.204,163.200 28.394 C 162.430 28.585,160.720 28.953,159.400 29.213 C 158.080 29.473,156.550 29.825,156.000 29.996 C 155.450 30.167,154.190 30.529,153.200 30.800 C 152.210 31.071,150.950 31.431,150.400 31.600 C 149.850 31.769,148.590 32.139,147.600 32.423 C 146.610 32.707,145.629 33.088,145.420 33.270 C 145.211 33.451,144.637 33.600,144.144 33.600 C 143.651 33.600,143.136 33.780,143.000 34.000 C 142.864 34.220,142.401 34.400,141.971 34.400 C 141.541 34.400,140.877 34.559,140.495 34.753 C 140.113 34.948,139.305 35.308,138.700 35.553 C 138.095 35.799,137.105 36.204,136.500 36.454 C 135.895 36.703,134.995 37.063,134.500 37.254 C 132.189 38.143,131.685 38.350,130.000 39.097 C 118.876 44.029,98.419 55.777,97.667 57.665 C 97.593 57.849,97.312 58.000,97.042 58.000 C 96.772 58.000,96.202 58.315,95.775 58.700 C 95.348 59.085,94.340 59.892,93.534 60.494 C 92.729 61.096,91.829 61.822,91.535 62.107 C 91.241 62.393,90.370 63.062,89.600 63.594 C 88.830 64.127,87.930 64.843,87.600 65.186 C 87.270 65.529,85.830 66.787,84.400 67.982 C 81.202 70.653,70.523 81.349,67.800 84.607 C 66.700 85.923,65.525 87.270,65.189 87.600 C 64.852 87.930,63.957 89.010,63.199 90.000 C 62.441 90.990,61.717 91.890,61.591 92.000 C 61.465 92.110,60.923 92.830,60.386 93.600 C 59.850 94.370,59.196 95.270,58.932 95.600 C 51.950 104.334,41.478 122.748,37.149 133.900 C 36.957 134.395,36.596 135.295,36.346 135.900 C 36.097 136.505,35.716 137.450,35.500 138.000 C 35.284 138.550,34.948 139.313,34.753 139.695 C 34.559 140.077,34.400 140.741,34.400 141.171 C 34.400 141.601,34.220 142.064,34.000 142.200 C 33.780 142.336,33.600 142.851,33.600 143.344 C 33.600 143.837,33.451 144.411,33.270 144.620 C 33.088 144.829,32.707 145.810,32.424 146.800 C 32.141 147.790,31.764 148.960,31.588 149.400 C 31.411 149.840,31.150 150.650,31.006 151.200 C 30.863 151.750,30.566 152.830,30.346 153.600 C 29.854 155.326,29.268 157.688,28.808 159.800 C 28.617 160.680,28.252 162.210,27.999 163.200 C 27.514 165.093,27.216 166.705,26.257 172.600 C 23.711 188.258,23.291 207.202,25.192 220.700 C 25.416 222.295,25.787 224.995,26.015 226.700 C 26.243 228.405,26.590 230.610,26.785 231.600 C 26.980 232.590,27.350 234.570,27.606 236.000 C 27.863 237.430,28.215 239.050,28.387 239.600 C 28.560 240.150,28.911 241.590,29.167 242.800 C 29.638 245.019,30.235 247.360,30.800 249.200 C 30.969 249.750,31.326 251.010,31.593 252.000 C 31.860 252.990,32.240 254.113,32.439 254.495 C 32.638 254.877,32.800 255.541,32.800 255.971 C 32.800 256.401,32.980 256.864,33.200 257.000 C 33.420 257.136,33.600 257.676,33.600 258.200 C 33.600 258.724,33.780 259.264,34.000 259.400 C 34.220 259.536,34.400 259.999,34.400 260.429 C 34.400 260.859,34.559 261.523,34.753 261.905 C 34.948 262.287,35.284 263.050,35.500 263.600 C 35.716 264.150,36.097 265.095,36.346 265.700 C 36.596 266.305,36.962 267.205,37.159 267.700 C 39.143 272.670,44.380 283.551,46.414 286.929 C 46.835 287.628,47.552 288.884,48.008 289.720 C 49.290 292.072,56.295 302.720,57.196 303.688 C 57.638 304.163,58.000 304.787,58.000 305.075 C 58.000 305.364,58.141 305.600,58.314 305.600 C 58.486 305.600,58.920 306.095,59.279 306.700 C 59.637 307.305,60.260 308.181,60.665 308.647 C 61.069 309.112,61.850 310.089,62.400 310.818 C 66.078 315.688,80.479 330.565,86.000 335.198 C 87.430 336.397,88.690 337.482,88.800 337.609 C 88.910 337.735,89.630 338.271,90.400 338.800 C 91.170 339.329,91.890 339.866,92.000 339.995 C 92.484 340.560,101.610 347.163,103.600 348.389 C 108.955 351.686,110.995 352.924,112.253 353.637 C 112.994 354.057,114.275 354.787,115.100 355.260 C 118.715 357.333,124.676 360.421,126.800 361.322 C 127.570 361.648,129.010 362.278,130.000 362.722 C 132.836 363.992,140.021 366.819,142.000 367.443 C 142.990 367.756,144.880 368.360,146.200 368.785 C 162.701 374.106,175.664 376.433,192.800 377.153 C 215.190 378.093,234.690 375.391,256.200 368.367 C 258.180 367.720,260.430 366.989,261.200 366.742 C 261.970 366.495,263.410 365.939,264.400 365.506 C 266.172 364.733,267.121 364.341,268.900 363.651 C 269.395 363.459,270.655 362.919,271.700 362.451 C 272.745 361.983,274.455 361.220,275.500 360.756 C 276.545 360.292,277.760 359.721,278.200 359.486 C 279.341 358.878,282.844 356.992,285.300 355.664 C 291.700 352.203,301.496 345.918,305.629 342.621 C 306.194 342.169,307.184 341.409,307.829 340.931 C 308.473 340.453,309.974 339.336,311.164 338.450 C 317.895 333.436,332.299 319.018,338.530 311.057 C 340.105 309.046,341.484 307.310,341.596 307.200 C 342.557 306.256,351.480 292.731,353.604 289.000 C 353.980 288.340,354.756 286.990,355.329 286.000 C 356.927 283.241,362.615 271.551,363.649 268.900 C 363.842 268.405,364.163 267.595,364.363 267.100 C 366.607 261.541,369.233 253.865,370.417 249.400 C 372.688 240.841,373.223 238.593,374.228 233.400 C 377.932 214.253,378.002 190.912,374.418 170.400 C 372.820 161.252,368.355 144.781,365.989 139.300 C 365.775 138.805,365.399 137.905,365.153 137.300 C 364.908 136.695,364.548 135.887,364.353 135.505 C 364.159 135.123,364.000 134.626,364.000 134.401 C 364.000 133.980,363.156 131.995,361.194 127.800 C 360.576 126.480,359.831 124.815,359.538 124.100 C 359.245 123.385,358.869 122.800,358.702 122.800 C 358.536 122.800,358.400 122.547,358.400 122.238 C 358.400 121.721,356.862 118.462,356.400 118.000 C 356.290 117.890,355.823 117.080,355.362 116.200 C 353.765 113.154,351.851 109.949,348.161 104.145 C 346.181 101.030,342.355 95.649,340.096 92.800 C 339.136 91.590,338.067 90.240,337.721 89.800 C 332.371 83.005,320.978 71.382,314.397 66.005 C 313.188 65.019,312.110 64.117,312.000 64.003 C 311.890 63.889,311.141 63.304,310.335 62.704 C 309.529 62.103,308.629 61.378,308.335 61.093 C 308.041 60.807,307.170 60.136,306.400 59.600 C 305.630 59.064,304.762 58.395,304.471 58.113 C 304.181 57.831,303.789 57.600,303.600 57.600 C 303.411 57.600,302.994 57.337,302.673 57.015 C 301.803 56.146,290.879 49.046,288.800 47.999 C 287.810 47.500,286.910 46.964,286.800 46.806 C 286.492 46.365,271.982 39.339,268.400 37.896 C 266.445 37.108,265.388 36.688,264.500 36.346 C 262.751 35.673,261.392 35.103,260.705 34.753 C 260.323 34.559,259.659 34.400,259.229 34.400 C 258.799 34.400,258.336 34.220,258.200 34.000 C 258.064 33.780,257.549 33.600,257.056 33.600 C 256.563 33.600,255.989 33.451,255.780 33.270 C 255.571 33.088,254.590 32.707,253.600 32.423 C 252.610 32.139,251.350 31.769,250.800 31.600 C 250.250 31.431,248.990 31.071,248.000 30.800 C 247.010 30.529,245.750 30.167,245.200 29.996 C 244.650 29.825,243.120 29.473,241.800 29.213 C 240.480 28.953,238.770 28.587,238.000 28.400 C 237.230 28.213,235.520 27.858,234.200 27.611 C 232.880 27.364,230.990 27.003,230.000 26.808 C 229.010 26.614,226.400 26.247,224.200 25.993 C 222.000 25.738,219.030 25.352,217.600 25.133 C 215.047 24.742,192.539 24.342,189.400 24.631 M214.600 39.398 C 216.800 39.540,219.230 39.823,220.000 40.026 C 220.770 40.229,222.309 40.397,223.420 40.398 C 224.531 40.399,225.611 40.563,225.820 40.763 C 226.029 40.963,227.100 41.221,228.200 41.337 C 229.300 41.453,231.190 41.750,232.400 41.997 C 233.610 42.245,235.365 42.545,236.300 42.664 C 237.235 42.783,238.000 43.042,238.000 43.240 C 238.000 43.438,238.709 43.600,239.576 43.600 C 240.443 43.600,241.264 43.780,241.400 44.000 C 241.536 44.220,242.166 44.400,242.800 44.400 C 243.434 44.400,244.064 44.580,244.200 44.800 C 244.336 45.020,244.966 45.200,245.600 45.200 C 246.234 45.200,246.864 45.380,247.000 45.600 C 247.136 45.820,247.676 46.000,248.200 46.000 C 248.724 46.000,249.264 46.180,249.400 46.400 C 249.536 46.620,250.076 46.800,250.600 46.800 C 251.124 46.800,251.664 46.980,251.800 47.200 C 251.936 47.420,252.476 47.600,253.000 47.600 C 253.524 47.600,254.064 47.780,254.200 48.000 C 254.336 48.220,254.887 48.400,255.424 48.400 C 255.961 48.400,256.400 48.580,256.400 48.800 C 256.400 49.020,256.839 49.200,257.376 49.200 C 257.913 49.200,258.464 49.380,258.600 49.600 C 258.736 49.820,259.287 50.000,259.824 50.000 C 260.361 50.000,260.800 50.180,260.800 50.400 C 260.800 50.620,261.149 50.800,261.576 50.800 C 262.003 50.800,262.464 50.980,262.600 51.200 C 262.736 51.420,263.287 51.600,263.824 51.600 C 264.361 51.600,264.800 51.780,264.800 52.000 C 264.800 52.220,265.160 52.400,265.600 52.400 C 266.040 52.400,266.400 52.580,266.400 52.800 C 266.400 53.020,266.760 53.200,267.200 53.200 C 267.640 53.200,268.000 53.380,268.000 53.600 C 268.000 53.820,268.254 54.000,268.566 54.000 C 269.255 54.000,274.147 56.448,274.333 56.886 C 274.407 57.059,274.812 57.200,275.233 57.200 C 275.655 57.200,276.000 57.380,276.000 57.600 C 276.000 57.820,276.272 58.000,276.605 58.000 C 277.192 58.000,278.794 58.760,279.200 59.232 C 279.310 59.360,279.985 59.719,280.700 60.030 C 281.415 60.341,282.000 60.731,282.000 60.898 C 282.000 61.064,282.360 61.200,282.800 61.200 C 283.240 61.200,283.600 61.380,283.600 61.600 C 283.600 61.820,283.960 62.000,284.400 62.000 C 284.840 62.000,285.205 62.225,285.212 62.500 C 285.218 62.775,286.298 63.615,287.612 64.368 C 288.925 65.120,290.000 65.885,290.000 66.068 C 290.000 66.250,290.225 66.400,290.500 66.400 C 290.775 66.401,291.523 66.851,292.162 67.400 C 292.801 67.950,293.448 68.400,293.600 68.400 C 293.752 68.400,294.399 68.850,295.038 69.400 C 295.677 69.949,296.359 70.399,296.553 70.400 C 296.747 70.400,297.197 70.724,297.553 71.119 C 297.909 71.514,298.830 72.275,299.600 72.810 C 300.370 73.345,301.382 74.147,301.850 74.591 C 303.241 75.915,304.389 76.800,304.716 76.800 C 304.885 76.800,305.283 77.160,305.600 77.600 C 305.917 78.040,306.318 78.400,306.491 78.400 C 306.665 78.400,308.137 79.705,309.763 81.300 C 311.390 82.895,313.324 84.756,314.060 85.436 C 314.797 86.116,316.750 88.159,318.400 89.977 C 320.050 91.794,321.850 93.775,322.400 94.378 C 322.950 94.982,324.030 96.256,324.800 97.210 C 325.570 98.163,326.605 99.353,327.100 99.853 C 327.595 100.354,328.004 100.907,328.009 101.082 C 328.014 101.257,328.645 102.120,329.410 103.000 C 331.221 105.084,331.219 105.081,332.610 107.299 C 333.264 108.344,334.025 109.199,334.300 109.199 C 334.575 109.200,334.800 109.560,334.800 110.000 C 334.800 110.440,334.947 110.800,335.126 110.800 C 335.305 110.800,335.814 111.475,336.256 112.300 C 337.606 114.817,338.170 115.725,338.900 116.555 C 339.285 116.993,339.600 117.587,339.600 117.875 C 339.600 118.164,339.780 118.400,340.000 118.400 C 340.220 118.400,340.400 118.760,340.400 119.200 C 340.400 119.640,340.535 120.003,340.700 120.006 C 340.865 120.010,341.440 120.910,341.979 122.006 C 342.517 123.103,343.102 124.000,343.279 124.000 C 343.455 124.000,343.600 124.360,343.600 124.800 C 343.600 125.240,343.780 125.600,344.000 125.600 C 344.220 125.600,344.400 125.960,344.400 126.400 C 344.400 126.840,344.580 127.200,344.800 127.200 C 345.020 127.200,345.200 127.560,345.200 128.000 C 345.200 128.440,345.380 128.800,345.600 128.800 C 345.820 128.800,346.000 129.160,346.000 129.600 C 346.000 130.040,346.180 130.400,346.400 130.400 C 346.620 130.400,346.800 130.760,346.800 131.200 C 346.800 131.640,346.980 132.000,347.200 132.000 C 347.420 132.000,347.600 132.349,347.600 132.776 C 347.600 133.203,347.780 133.664,348.000 133.800 C 348.220 133.936,348.400 134.487,348.400 135.024 C 348.400 135.561,348.580 136.000,348.800 136.000 C 349.020 136.000,349.200 136.360,349.200 136.800 C 349.200 137.240,349.380 137.600,349.600 137.600 C 349.820 137.600,350.000 137.949,350.000 138.376 C 350.000 138.803,350.180 139.264,350.400 139.400 C 350.620 139.536,350.800 140.076,350.800 140.600 C 350.800 141.124,350.980 141.664,351.200 141.800 C 351.420 141.936,351.600 142.397,351.600 142.824 C 351.600 143.251,351.780 143.600,352.000 143.600 C 352.220 143.600,352.400 143.962,352.400 144.405 C 352.400 144.848,352.574 145.523,352.786 145.905 C 353.446 147.092,356.783 157.760,357.382 160.600 C 357.522 161.260,357.817 162.520,358.039 163.400 C 358.261 164.280,358.631 165.945,358.861 167.100 C 359.091 168.255,359.442 169.200,359.640 169.200 C 359.838 169.200,360.000 170.179,360.000 171.376 C 360.000 172.573,360.180 173.664,360.400 173.800 C 360.620 173.936,360.800 175.106,360.800 176.400 C 360.800 177.694,360.980 178.864,361.200 179.000 C 361.420 179.136,361.600 180.857,361.600 182.824 C 361.600 184.941,361.763 186.400,362.000 186.400 C 362.220 186.400,362.400 187.278,362.400 188.351 C 362.400 189.424,362.670 190.949,363.000 191.738 C 363.865 193.809,363.865 208.467,363.000 210.538 C 362.661 211.349,362.400 213.189,362.400 214.764 C 362.400 216.298,362.220 217.664,362.000 217.800 C 361.780 217.936,361.600 219.387,361.600 221.024 C 361.600 222.741,361.431 224.000,361.200 224.000 C 360.974 224.000,360.800 225.133,360.800 226.600 C 360.800 228.067,360.626 229.200,360.400 229.200 C 360.180 229.200,360.000 229.989,360.000 230.954 C 360.000 231.919,359.731 233.224,359.402 233.854 C 359.074 234.484,358.804 235.347,358.802 235.772 C 358.801 236.196,358.632 237.096,358.427 237.772 C 358.222 238.447,357.877 239.720,357.660 240.600 C 356.766 244.231,356.303 245.837,355.961 246.495 C 355.762 246.877,355.600 247.606,355.600 248.115 C 355.600 248.624,355.451 249.211,355.270 249.420 C 355.088 249.629,354.710 250.610,354.431 251.600 C 354.151 252.590,353.790 253.670,353.628 254.000 C 353.467 254.330,353.085 255.455,352.780 256.500 C 352.475 257.545,352.085 258.400,351.913 258.400 C 351.741 258.400,351.600 258.940,351.600 259.600 C 351.600 260.260,351.420 260.800,351.200 260.800 C 350.980 260.800,350.800 261.072,350.800 261.405 C 350.800 261.738,350.620 262.368,350.400 262.805 C 350.180 263.242,349.820 263.958,349.600 264.395 C 349.380 264.832,349.200 265.462,349.200 265.795 C 349.200 266.128,349.020 266.400,348.800 266.400 C 348.580 266.400,348.400 266.760,348.400 267.200 C 348.400 267.640,348.220 268.000,348.000 268.000 C 347.780 268.000,347.600 268.360,347.600 268.800 C 347.600 269.240,347.420 269.600,347.200 269.600 C 346.980 269.600,346.801 269.825,346.803 270.100 C 346.807 270.733,343.512 277.354,343.104 277.533 C 342.937 277.607,342.800 277.886,342.800 278.154 C 342.800 278.863,341.851 280.793,341.500 280.797 C 341.335 280.799,341.200 281.070,341.200 281.400 C 341.200 281.730,341.020 282.000,340.800 282.000 C 340.580 282.000,340.400 282.360,340.400 282.800 C 340.400 283.240,340.220 283.600,340.000 283.600 C 339.780 283.600,339.600 283.920,339.600 284.312 C 339.600 284.703,339.240 285.283,338.800 285.600 C 338.360 285.917,338.000 286.414,338.000 286.705 C 338.000 286.996,337.640 287.620,337.200 288.092 C 336.760 288.564,336.400 289.187,336.400 289.475 C 336.400 289.764,336.220 290.000,336.000 290.000 C 335.780 290.000,335.600 290.270,335.600 290.600 C 335.600 290.930,335.420 291.200,335.200 291.200 C 334.980 291.200,334.800 291.404,334.800 291.653 C 334.800 291.902,334.483 292.397,334.097 292.753 C 333.710 293.109,332.904 294.120,332.306 295.000 C 331.709 295.880,330.589 297.320,329.817 298.200 C 329.046 299.080,328.412 299.916,328.408 300.058 C 328.403 300.199,327.905 300.852,327.300 301.508 C 326.181 302.722,325.076 304.072,323.486 306.169 C 322.999 306.812,321.430 308.554,320.000 310.039 C 316.305 313.876,315.200 315.158,315.200 315.607 C 315.200 315.823,315.050 316.000,314.868 316.000 C 314.525 316.000,311.686 318.451,308.382 321.600 C 307.343 322.590,306.154 323.670,305.739 324.000 C 305.324 324.330,303.188 326.043,300.992 327.807 C 298.797 329.571,295.965 331.696,294.700 332.529 C 293.435 333.361,292.400 334.213,292.400 334.421 C 292.400 334.630,292.164 334.800,291.875 334.800 C 291.587 334.800,291.002 335.115,290.575 335.500 C 290.149 335.885,289.305 336.455,288.700 336.768 C 288.095 337.080,287.600 337.485,287.600 337.668 C 287.600 337.850,287.280 338.000,286.888 338.000 C 286.497 338.000,285.917 338.360,285.600 338.800 C 285.283 339.240,284.791 339.600,284.506 339.600 C 284.022 339.600,282.445 340.355,282.000 340.800 C 281.289 341.511,267.622 348.400,266.922 348.400 C 266.635 348.400,266.400 348.580,266.400 348.800 C 266.400 349.020,266.040 349.200,265.600 349.200 C 265.160 349.200,264.800 349.347,264.800 349.528 C 264.800 349.708,263.900 350.100,262.800 350.400 C 261.700 350.700,260.800 351.092,260.800 351.272 C 260.800 351.453,260.361 351.600,259.824 351.600 C 259.287 351.600,258.736 351.780,258.600 352.000 C 258.464 352.220,258.001 352.400,257.571 352.400 C 257.141 352.400,256.432 352.580,255.995 352.800 C 255.558 353.020,254.842 353.380,254.405 353.600 C 253.968 353.820,253.259 354.000,252.829 354.000 C 252.399 354.000,251.936 354.180,251.800 354.400 C 251.664 354.620,251.124 354.800,250.600 354.800 C 250.076 354.800,249.536 354.980,249.400 355.200 C 249.264 355.420,248.724 355.600,248.200 355.600 C 247.676 355.600,247.136 355.780,247.000 356.000 C 246.864 356.220,246.371 356.400,245.905 356.400 C 245.004 356.400,242.661 357.065,241.505 357.649 C 241.123 357.842,240.560 358.000,240.254 358.000 C 239.947 358.000,238.702 358.455,237.486 359.012 C 233.839 360.682,230.977 361.266,227.918 360.964 C 226.112 360.786,225.200 360.838,225.200 361.118 C 225.200 361.553,222.152 361.857,214.000 362.235 C 211.470 362.352,209.229 362.617,209.020 362.824 C 208.495 363.344,192.000 363.321,192.000 362.800 C 192.000 362.556,190.133 362.400,187.200 362.400 C 184.267 362.400,182.400 362.244,182.400 362.000 C 182.400 361.767,181.075 361.600,179.224 361.600 C 177.477 361.600,175.936 361.420,175.800 361.200 C 175.664 360.980,174.584 360.800,173.400 360.800 C 172.216 360.800,171.136 360.620,171.000 360.400 C 170.864 360.180,169.863 360.000,168.776 360.000 C 167.689 360.000,166.800 359.841,166.800 359.647 C 166.800 359.452,165.405 358.993,163.700 358.626 C 161.995 358.258,158.929 357.427,156.888 356.779 C 154.846 356.131,152.821 355.600,152.388 355.600 C 151.954 355.600,151.600 355.420,151.600 355.200 C 151.600 354.980,151.161 354.800,150.624 354.800 C 150.087 354.800,149.536 354.620,149.400 354.400 C 149.264 354.180,148.795 354.000,148.357 354.000 C 147.919 354.000,146.816 353.640,145.906 353.200 C 144.995 352.760,143.934 352.400,143.548 352.400 C 143.163 352.400,142.758 352.256,142.649 352.079 C 142.540 351.903,141.539 351.510,140.425 351.207 C 139.311 350.904,138.400 350.508,138.400 350.328 C 138.400 350.147,138.121 350.000,137.781 350.000 C 137.440 350.000,136.416 349.640,135.506 349.200 C 134.595 348.760,133.614 348.400,133.325 348.400 C 133.036 348.400,132.800 348.220,132.800 348.000 C 132.800 347.780,132.566 347.600,132.280 347.600 C 131.544 347.600,129.607 346.659,129.603 346.300 C 129.601 346.135,129.240 346.000,128.800 346.000 C 128.360 346.000,128.000 345.820,128.000 345.600 C 128.000 345.380,127.640 345.200,127.200 345.200 C 126.760 345.200,126.400 345.020,126.400 344.800 C 126.400 344.580,126.040 344.400,125.600 344.400 C 125.160 344.400,124.800 344.220,124.800 344.000 C 124.800 343.780,124.440 343.600,124.000 343.600 C 123.560 343.600,123.200 343.420,123.200 343.200 C 123.200 342.980,122.945 342.800,122.633 342.800 C 122.322 342.800,122.007 342.665,121.933 342.500 C 121.860 342.335,120.900 341.752,119.800 341.205 C 118.700 340.658,117.710 340.118,117.600 340.005 C 117.218 339.613,114.996 338.349,114.300 338.129 C 113.915 338.007,113.600 337.748,113.600 337.553 C 113.600 337.359,113.330 337.200,113.000 337.200 C 112.670 337.200,112.400 337.020,112.400 336.800 C 112.400 336.580,112.164 336.400,111.875 336.400 C 111.587 336.400,110.964 336.040,110.492 335.600 C 110.020 335.160,109.534 334.800,109.413 334.800 C 109.292 334.800,108.658 334.323,108.004 333.741 C 107.350 333.158,106.476 332.483,106.061 332.241 C 104.566 331.368,102.982 330.177,101.620 328.900 C 100.858 328.185,100.094 327.600,99.924 327.600 C 99.754 327.600,98.966 326.970,98.173 326.200 C 97.380 325.430,96.659 324.800,96.570 324.800 C 96.065 324.800,91.119 320.240,85.039 314.168 C 80.115 309.250,79.316 308.372,77.086 305.431 C 76.599 304.788,75.795 303.851,75.300 303.349 C 74.805 302.847,74.400 302.340,74.400 302.223 C 74.400 302.005,73.852 301.310,71.907 299.063 C 71.305 298.368,70.138 296.810,69.312 295.600 C 68.486 294.390,67.712 293.310,67.590 293.200 C 67.250 292.892,62.651 286.030,62.205 285.165 C 61.988 284.744,61.673 284.400,61.505 284.400 C 61.337 284.400,61.200 284.040,61.200 283.600 C 61.200 283.160,61.054 282.800,60.875 282.800 C 60.696 282.800,60.302 282.170,60.000 281.400 C 59.698 280.630,59.349 279.999,59.225 279.999 C 59.101 279.998,58.550 279.008,58.000 277.800 C 57.450 276.592,56.865 275.602,56.700 275.601 C 56.535 275.601,56.400 275.348,56.400 275.041 C 56.400 274.733,55.860 273.455,55.200 272.200 C 54.540 270.945,54.000 269.667,54.000 269.359 C 54.000 269.052,53.820 268.800,53.600 268.800 C 53.380 268.800,53.200 268.440,53.200 268.000 C 53.200 267.560,53.020 267.200,52.800 267.200 C 52.580 267.200,52.400 266.840,52.400 266.400 C 52.400 265.960,52.253 265.600,52.072 265.600 C 51.892 265.600,51.500 264.700,51.200 263.600 C 50.900 262.500,50.508 261.600,50.328 261.600 C 50.147 261.600,50.000 261.161,50.000 260.624 C 50.000 260.087,49.820 259.536,49.600 259.400 C 49.380 259.264,49.200 258.803,49.200 258.376 C 49.200 257.949,49.020 257.600,48.800 257.600 C 48.580 257.600,48.400 257.060,48.400 256.400 C 48.400 255.740,48.220 255.200,48.000 255.200 C 47.780 255.200,47.600 254.748,47.600 254.195 C 47.600 253.642,47.392 252.787,47.138 252.295 C 46.128 250.341,46.000 249.975,46.000 249.029 C 46.000 248.489,45.820 247.936,45.600 247.800 C 45.380 247.664,45.200 247.034,45.200 246.400 C 45.200 245.766,45.020 245.136,44.800 245.000 C 44.580 244.864,44.400 244.133,44.400 243.376 C 44.400 242.619,44.220 242.000,44.000 242.000 C 43.780 242.000,43.600 241.381,43.600 240.624 C 43.600 239.867,43.420 239.136,43.200 239.000 C 42.980 238.864,42.800 238.079,42.800 237.256 C 42.800 236.433,42.638 235.589,42.441 235.380 C 42.094 235.013,41.964 234.310,41.374 229.600 C 41.223 228.390,40.957 227.220,40.784 227.000 C 40.611 226.780,40.422 225.610,40.365 224.400 C 40.308 223.190,40.126 221.750,39.960 221.200 C 38.606 216.701,38.651 186.039,40.022 179.080 C 40.230 178.024,40.400 176.575,40.400 175.860 C 40.400 175.145,40.563 174.389,40.763 174.180 C 40.963 173.971,41.221 172.900,41.337 171.800 C 41.453 170.700,41.748 168.810,41.994 167.600 C 42.240 166.390,42.541 164.724,42.663 163.897 C 42.785 163.071,43.045 162.295,43.242 162.174 C 43.439 162.052,43.600 161.344,43.600 160.600 C 43.600 159.856,43.780 159.136,44.000 159.000 C 44.220 158.864,44.400 158.223,44.400 157.576 C 44.400 156.929,44.580 156.400,44.800 156.400 C 45.020 156.400,45.200 156.008,45.200 155.528 C 45.200 154.608,45.860 152.272,46.449 151.105 C 46.642 150.723,46.800 150.059,46.800 149.629 C 46.800 149.199,46.980 148.736,47.200 148.600 C 47.420 148.464,47.600 148.001,47.600 147.571 C 47.600 147.141,47.780 146.432,48.000 145.995 C 48.220 145.558,48.580 144.842,48.800 144.405 C 49.020 143.968,49.200 143.259,49.200 142.829 C 49.200 142.399,49.380 141.936,49.600 141.800 C 49.820 141.664,50.000 141.203,50.000 140.776 C 50.000 140.349,50.180 140.000,50.400 140.000 C 50.620 140.000,50.800 139.651,50.800 139.224 C 50.800 138.797,50.980 138.336,51.200 138.200 C 51.420 138.064,51.600 137.513,51.600 136.976 C 51.600 136.439,51.780 136.000,52.000 136.000 C 52.220 136.000,52.400 135.640,52.400 135.200 C 52.400 134.760,52.580 134.400,52.800 134.400 C 53.020 134.400,53.200 134.040,53.200 133.600 C 53.200 133.160,53.380 132.800,53.600 132.800 C 53.820 132.800,53.999 132.575,53.997 132.300 C 53.994 131.665,58.086 123.445,58.495 123.267 C 58.663 123.193,58.800 122.788,58.800 122.367 C 58.800 121.945,58.959 121.600,59.153 121.600 C 59.348 121.600,59.610 121.285,59.736 120.900 C 60.119 119.728,64.714 112.470,66.383 110.400 C 66.826 109.850,67.192 109.257,67.195 109.082 C 67.198 108.907,67.636 108.328,68.169 107.795 C 68.702 107.262,69.254 106.460,69.396 106.013 C 69.538 105.566,69.810 105.200,70.000 105.200 C 70.190 105.200,70.457 104.849,70.594 104.420 C 70.730 103.991,71.642 102.793,72.621 101.757 C 73.599 100.720,74.400 99.715,74.400 99.523 C 74.400 99.331,74.985 98.577,75.700 97.849 C 76.415 97.121,77.403 96.002,77.896 95.362 C 81.200 91.076,92.410 79.833,95.600 77.608 C 96.370 77.070,97.477 76.129,98.060 75.515 C 98.644 74.902,99.275 74.400,99.463 74.400 C 99.651 74.400,100.527 73.725,101.411 72.900 C 102.295 72.075,103.509 71.145,104.109 70.832 C 104.709 70.520,105.200 70.115,105.200 69.932 C 105.200 69.750,105.425 69.593,105.700 69.584 C 105.975 69.575,106.823 69.035,107.585 68.384 C 108.347 67.733,109.119 67.200,109.302 67.200 C 109.484 67.200,110.005 66.854,110.459 66.431 C 110.914 66.007,112.391 64.983,113.743 64.155 C 115.094 63.326,116.260 62.503,116.333 62.324 C 116.407 62.146,116.722 62.000,117.033 62.000 C 117.345 62.000,117.600 61.820,117.600 61.600 C 117.600 61.380,117.960 61.200,118.400 61.200 C 118.840 61.200,119.200 61.020,119.200 60.800 C 119.200 60.580,119.560 60.400,120.000 60.400 C 120.440 60.400,120.800 60.241,120.800 60.047 C 120.800 59.852,121.115 59.593,121.500 59.471 C 122.436 59.175,124.566 57.876,124.733 57.500 C 124.807 57.335,125.212 57.200,125.633 57.200 C 126.055 57.200,126.400 57.020,126.400 56.800 C 126.400 56.580,126.760 56.400,127.200 56.400 C 127.640 56.400,128.000 56.220,128.000 56.000 C 128.000 55.780,128.360 55.600,128.800 55.600 C 129.240 55.600,129.600 55.420,129.600 55.200 C 129.600 54.980,129.960 54.800,130.400 54.800 C 130.840 54.800,131.200 54.620,131.200 54.400 C 131.200 54.180,131.560 54.000,132.000 54.000 C 132.440 54.000,132.800 53.820,132.800 53.600 C 132.800 53.380,133.079 53.200,133.419 53.200 C 133.760 53.200,134.784 52.840,135.694 52.400 C 136.605 51.960,137.586 51.600,137.875 51.600 C 138.164 51.600,138.400 51.420,138.400 51.200 C 138.400 50.980,138.940 50.800,139.600 50.800 C 140.260 50.800,140.800 50.620,140.800 50.400 C 140.800 50.180,141.250 50.000,141.800 50.000 C 142.350 50.000,142.800 49.820,142.800 49.600 C 142.800 49.380,143.239 49.200,143.776 49.200 C 144.313 49.200,144.864 49.020,145.000 48.800 C 145.136 48.580,145.676 48.400,146.200 48.400 C 146.724 48.400,147.264 48.220,147.400 48.000 C 147.536 47.780,147.999 47.600,148.429 47.600 C 148.859 47.600,149.523 47.441,149.905 47.247 C 151.834 46.265,155.178 45.200,156.328 45.200 C 156.808 45.200,157.200 45.020,157.200 44.800 C 157.200 44.580,157.819 44.400,158.576 44.400 C 159.333 44.400,160.052 44.240,160.173 44.044 C 160.294 43.849,160.979 43.588,161.696 43.466 C 162.413 43.344,163.900 43.045,165.000 42.801 C 168.025 42.130,171.174 41.582,173.400 41.337 C 174.500 41.217,175.580 40.971,175.800 40.792 C 176.021 40.614,177.281 40.422,178.600 40.366 C 179.920 40.311,181.450 40.128,182.000 39.960 C 182.550 39.791,184.958 39.559,187.351 39.443 C 189.744 39.327,191.810 39.123,191.943 38.990 C 192.219 38.714,208.585 39.009,214.600 39.398 " stroke="none" fill="#8598aa" fill-rule="evenodd"></path><path id="path6" d="" stroke="none" fill="#00ffff" fill-rule="evenodd"></path></g></svg>